
<svg width="295px" height="210px" viewBox="0 0 295 210" version="1.1" xmlns="http://www.w3.org/2000/svg" xmlns:xlink="http://www.w3.org/1999/xlink">
    <!-- Generator: Sketch 49.3 (51167) - http://www.bohemiancoding.com/sketch -->
    <desc>Created with Sketch.</desc>
    <defs></defs>
    <g id="Page-1" stroke="none" stroke-width="1" fill="none" fill-rule="evenodd">
        <g id="Sentence-Weather-App-Dark" transform="translate(-40.000000, -40.000000)">
            <path d="M275.946282,42.9842768 C268.112181,52.7131617 263.423107,65.0812837 263.423107,78.5445974 C263.423107,109.881476 288.826666,135.285035 320.163545,135.285035 C324.2077,135.285035 328.153035,134.861939 331.957702,134.057597 C321.557341,146.973427 305.614003,155.237716 287.740438,155.237716 C256.403559,155.237716 231,129.834157 231,98.4972788 C231,71.2045551 250.269785,48.4125308 275.946281,42.9842791 Z" id="Combined-Shape" stroke="#FFFFFF" stroke-width="6" stroke-linejoin="round"></path>
            <g id="Group-3" opacity="0.277909873" transform="translate(41.000000, 44.000000)" fill="#D8D8D8" stroke="#979797">
                <circle id="Oval-2" cx="104.5" cy="5.5" r="5.5"></circle>
                <circle id="Oval-2-Copy-5" cx="229.5" cy="158.5" r="5.5"></circle>
                <circle id="Oval-2-Copy" cx="141.5" cy="96.5" r="3.5"></circle>
                <circle id="Oval-2-Copy-2" cx="3.5" cy="173.5" r="3.5"></circle>
                <circle id="Oval-2-Copy-3" cx="66" cy="136" r="2"></circle>
                <circle id="Oval-2-Copy-9" cx="127" cy="173" r="2"></circle>
                <circle id="Oval-2-Copy-7" cx="53" cy="203" r="2"></circle>
                <circle id="Oval-2-Copy-6" cx="277" cy="39" r="2"></circle>
                <circle id="Oval-2-Copy-4" cx="25" cy="65" r="2"></circle>
                <circle id="Oval-2-Copy-8" cx="287" cy="198" r="2"></circle>
            </g>
        </g>
    </g>
</svg>