
<svg width="295px" height="209px" viewBox="0 0 295 209" version="1.1" xmlns="http://www.w3.org/2000/svg" xmlns:xlink="http://www.w3.org/1999/xlink">
    <!-- Generator: Sketch 49.3 (51167) - http://www.bohemiancoding.com/sketch -->
    <desc>Created with Sketch.</desc>
    <defs></defs>
    <g id="Page-1" stroke="none" stroke-width="1" fill="none" fill-rule="evenodd">
        <g id="Sentence-Weather-App" transform="translate(-40.000000, -40.000000)">
            <g id="weather-bg" transform="translate(40.000000, 40.000000)">
                <path d="M217.998125,125.125 C215.344031,125.125 213.185625,127.290625 213.185625,129.9375 L213.185625,149.1875 C213.185625,151.858438 215.344031,154 217.998125,154 C220.659438,154 222.810625,151.858438 222.810625,149.1875 L222.810625,129.9375 C222.810625,127.290625 220.659438,125.125 217.998125,125.125 L217.998125,125.125 Z M176.095688,112.107188 L166.470688,121.732188 C164.591406,123.609063 164.591406,126.640938 166.470688,128.517813 C167.411531,129.45625 168.643531,129.9375 169.875531,129.9375 C171.105125,129.9375 172.339531,129.45625 173.277969,128.517813 L182.902969,118.892813 C184.78225,117.015938 184.78225,113.984063 182.902969,112.107188 C181.026094,110.20625 177.977375,110.20625 176.095688,112.107188 L176.095688,112.107188 Z M259.900563,112.107188 C258.026094,110.20625 254.974969,110.20625 253.095687,112.107188 C251.216406,113.984063 251.216406,117.015938 253.095687,118.892813 L262.720687,128.517813 C263.661531,129.45625 264.891125,129.9375 266.123125,129.9375 C267.355125,129.9375 268.587125,129.45625 269.525563,128.517813 C271.404844,126.640938 271.404844,123.609063 269.525563,121.732188 L259.900563,112.107188 L259.900563,112.107188 Z M217.998125,33.6875 C194.1185,33.6875 174.685625,53.1059375 174.685625,77 C174.685625,100.894062 194.1185,120.3125 217.998125,120.3125 C241.882563,120.3125 261.310625,100.894062 261.310625,77 C261.310625,53.1059375 241.882563,33.6875 217.998125,33.6875 L217.998125,33.6875 Z M217.998125,110.6875 C199.426688,110.6875 184.310625,95.57625 184.310625,77 C184.310625,58.42375 199.426688,43.3125 217.998125,43.3125 C236.576781,43.3125 251.685625,58.42375 251.685625,77 C251.685625,95.57625 236.576781,110.6875 217.998125,110.6875 L217.998125,110.6875 Z M169.875531,77 C169.875531,74.353125 167.721938,72.1875 165.063031,72.1875 L145.813031,72.1875 C143.156531,72.1875 141.000531,74.353125 141.000531,77 C141.000531,79.6709375 143.156531,81.8125 145.813031,81.8125 L165.063031,81.8125 C167.721938,81.8125 169.875531,79.6709375 169.875531,77 L169.875531,77 Z M290.185625,72.1875 L270.935625,72.1875 C268.279125,72.1875 266.123125,74.353125 266.123125,77 C266.123125,79.6709375 268.279125,81.8125 270.935625,81.8125 L290.185625,81.8125 C292.844531,81.8125 294.998125,79.6709375 294.998125,77 C294.998125,74.353125 292.844531,72.1875 290.185625,72.1875 L290.185625,72.1875 Z M166.470688,25.4821875 C164.591406,27.3590625 164.591406,30.3909375 166.470688,32.2678125 L176.095688,41.8928125 C177.036531,42.83125 178.268531,43.3125 179.498125,43.3125 C180.730125,43.3125 181.964531,42.83125 182.902969,41.8928125 C184.78225,40.0159375 184.78225,36.9840625 182.902969,35.1071875 L173.277969,25.4821875 C171.401094,23.58125 168.352375,23.58125 166.470688,25.4821875 L166.470688,25.4821875 Z M262.720687,25.4821875 L253.095687,35.1071875 C251.216406,36.9840625 251.216406,40.0159375 253.095687,41.8928125 C254.036531,42.83125 255.266125,43.3125 256.498125,43.3125 C257.730125,43.3125 258.962125,42.83125 259.900563,41.8928125 L269.525563,32.2678125 C271.404844,30.3909375 271.404844,27.3590625 269.525563,25.4821875 C267.651094,23.58125 264.599969,23.58125 262.720687,25.4821875 L262.720687,25.4821875 Z M213.185625,4.8125 L213.185625,24.0625 C213.185625,26.7334375 215.344031,28.875 217.998125,28.875 C220.659438,28.875 222.810625,26.7334375 222.810625,24.0625 L222.810625,4.8125 C222.810625,2.165625 220.659438,0 217.998125,0 C215.344031,0 213.185625,2.165625 213.185625,4.8125 L213.185625,4.8125 Z" id="145" fill="#FFC800"></path>
                <path d="M172.868968,174.332579 C171.248465,154.575035 154.658428,139 134.498383,139 C116.609843,139 101.178308,150.620026 96.7175485,167.000063 L96.0000469,167.000063 C84.420271,167.000063 75,176.415084 75,188.000109 C75,199.585135 84.420271,209.000156 96.0000469,209.000156 L169.498461,209.000156 C179.147982,209.000156 186.9985,201.142639 186.9985,191.500117 C186.9985,182.995098 180.911986,175.907582 172.868968,174.332579 L172.868968,174.332579 Z M169.498461,202.000141 L96.0000469,202.000141 C88.2825296,202.000141 82.0000156,195.717627 82.0000156,188.000109 C82.0000156,180.282592 88.2825296,174.000078 96.0000469,174.000078 L99.5000547,174.000078 C101.185308,174.000078 102.630812,172.810075 102.940562,171.147572 C105.679318,156.570039 118.951348,146.000016 134.498383,146.000016 C151.868922,146.000016 165.998453,160.122547 165.998453,177.500086 C165.998453,179.44259 167.568207,181.000094 169.498461,181.000094 C175.289224,181.000094 179.998484,185.707604 179.998484,191.500117 C179.998484,197.29263 175.289224,202.000141 169.498461,202.000141 L169.498461,202.000141 Z" id="146" fill="#E7E7E7" opacity="0"></path>
                <path d="M66.4119752,73.9759996 C65.312333,60.5689151 54.0546571,50 40.3744434,50 C28.2356287,50 17.7640901,57.8851232 14.7371053,69.0002969 L14.2502227,69.0002969 C6.39241238,69.0002969 0,75.3891467 0,83.2505195 C0,91.1118924 6.39241238,97.5007422 14.2502227,97.5007422 L64.1248145,97.5007422 C70.6727918,97.5007422 76,92.1687839 76,85.6255566 C76,79.8542165 71.8698105,75.0447663 66.4119752,73.9759996 L66.4119752,73.9759996 Z M64.1248145,92.750668 L14.2502227,92.750668 C9.01326583,92.750668 4.75007422,88.4874764 4.75007422,83.2505195 C4.75007422,78.0135627 9.01326583,73.7503711 14.2502227,73.7503711 L16.6252598,73.7503711 C17.7688401,73.7503711 18.7497305,72.9428585 18.9599212,71.8147159 C20.8183878,61.9226863 29.8245285,54.7500742 40.3744434,54.7500742 C52.1617525,54.7500742 61.7497773,64.333349 61.7497773,76.1254082 C61.7497773,77.4435538 62.8149815,78.5004453 64.1248145,78.5004453 C68.0543133,78.5004453 71.2499258,81.6948702 71.2499258,85.6255566 C71.2499258,89.5562431 68.0543133,92.750668 64.1248145,92.750668 L64.1248145,92.750668 Z" id="146-copy" fill="#F0F0F0" opacity="0.398890399" transform="translate(38.000000, 73.750371) scale(-1, 1) translate(-38.000000, -73.750371) "></path>
            </g>
        </g>
    </g>
</svg>