<?xml version="1.0" encoding="UTF-8"?>
<svg width="320px" height="1024px" viewBox="0 0 320 1024" version="1.1" xmlns="http://www.w3.org/2000/svg" xmlns:xlink="http://www.w3.org/1999/xlink">
    <!-- Generator: Sketch 49.3 (51167) - http://www.bohemiancoding.com/sketch -->
    <title>Mobile Portrait</title>
    <desc>Created with Sketch.</desc>
    <defs>
        <linearGradient x1="50%" y1="0%" x2="50%" y2="100%" id="linearGradient-1">
            <stop stop-color="#E17EDE" offset="0%"></stop>
            <stop stop-color="#C877F2" offset="100%"></stop>
        </linearGradient>
        <rect id="path-2" x="0" y="0" width="66" height="66" rx="12"></rect>
        <filter x="-1.5%" y="-1.5%" width="103.0%" height="107.6%" filterUnits="objectBoundingBox" id="filter-3">
            <feOffset dx="0" dy="2" in="SourceAlpha" result="shadowOffsetOuter1"></feOffset>
            <feComposite in="shadowOffsetOuter1" in2="SourceAlpha" operator="out" result="shadowOffsetOuter1"></feComposite>
            <feColorMatrix values="0 0 0 0 1   0 0 0 0 1   0 0 0 0 1  0 0 0 0.2 0" type="matrix" in="shadowOffsetOuter1" result="shadowMatrixOuter1"></feColorMatrix>
            <feOffset dx="0" dy="1" in="SourceAlpha" result="shadowOffsetOuter2"></feOffset>
            <feComposite in="shadowOffsetOuter2" in2="SourceAlpha" operator="out" result="shadowOffsetOuter2"></feComposite>
            <feColorMatrix values="0 0 0 0 1   0 0 0 0 1   0 0 0 0 1  0 0 0 0.2 0" type="matrix" in="shadowOffsetOuter2" result="shadowMatrixOuter2"></feColorMatrix>
            <feMerge>
                <feMergeNode in="shadowMatrixOuter1"></feMergeNode>
                <feMergeNode in="shadowMatrixOuter2"></feMergeNode>
            </feMerge>
        </filter>
        <filter x="-2.3%" y="-2.3%" width="104.5%" height="109.1%" filterUnits="objectBoundingBox" id="filter-4">
            <feOffset dx="0" dy="3" in="SourceAlpha" result="shadowOffsetInner1"></feOffset>
            <feComposite in="shadowOffsetInner1" in2="SourceAlpha" operator="arithmetic" k2="-1" k3="1" result="shadowInnerInner1"></feComposite>
            <feColorMatrix values="0 0 0 0 1   0 0 0 0 1   0 0 0 0 1  0 0 0 0.25 0" type="matrix" in="shadowInnerInner1"></feColorMatrix>
        </filter>
        <path d="M20.2204296,19.2204296 L15,14 L30,14 L30,14.3132371 C30.3305079,14.2533402 30.6639163,14.2017734 31,14.1587621 L31,19.3221795 C30.6619392,19.3959864 30.328444,19.4820076 30,19.5797573 L30,29 L24.1005049,23.1005049 C21.5670033,25.6340066 20,29.1340066 20,33 C20,39.7022376 24.7096358,45.3044802 31,46.6778205 L31,52.8412379 C21.4111422,51.6140758 14,43.4225209 14,33.5 C14,27.8608538 16.3936895,22.7807841 20.2204296,19.2204296 Z M46.7795704,47.7795704 L51,52 L39.6811346,52 C38.8130003,52.2899256 37.917681,52.5204544 37,52.6867629 L37,52 L36,52 L36,37 L42.8491648,43.8491648 C45.992888,41.2818967 48,37.3753415 48,33 C48,26.2977624 43.2903642,20.6955198 37,19.3221795 L37,14.3132371 C46.0992656,15.9622688 53,23.9252575 53,33.5 C53,39.1391462 50.6063105,44.2192159 46.7795704,47.7795704 Z" id="path-5"></path>
        <rect id="path-6" x="0" y="0" width="66" height="66" rx="12"></rect>
        <filter x="-1.5%" y="-1.5%" width="103.0%" height="107.6%" filterUnits="objectBoundingBox" id="filter-7">
            <feOffset dx="0" dy="2" in="SourceAlpha" result="shadowOffsetOuter1"></feOffset>
            <feComposite in="shadowOffsetOuter1" in2="SourceAlpha" operator="out" result="shadowOffsetOuter1"></feComposite>
            <feColorMatrix values="0 0 0 0 1   0 0 0 0 1   0 0 0 0 1  0 0 0 0.2 0" type="matrix" in="shadowOffsetOuter1" result="shadowMatrixOuter1"></feColorMatrix>
            <feOffset dx="0" dy="1" in="SourceAlpha" result="shadowOffsetOuter2"></feOffset>
            <feComposite in="shadowOffsetOuter2" in2="SourceAlpha" operator="out" result="shadowOffsetOuter2"></feComposite>
            <feColorMatrix values="0 0 0 0 1   0 0 0 0 1   0 0 0 0 1  0 0 0 0.2 0" type="matrix" in="shadowOffsetOuter2" result="shadowMatrixOuter2"></feColorMatrix>
            <feMerge>
                <feMergeNode in="shadowMatrixOuter1"></feMergeNode>
                <feMergeNode in="shadowMatrixOuter2"></feMergeNode>
            </feMerge>
        </filter>
        <filter x="-2.3%" y="-2.3%" width="104.5%" height="109.1%" filterUnits="objectBoundingBox" id="filter-8">
            <feOffset dx="0" dy="3" in="SourceAlpha" result="shadowOffsetInner1"></feOffset>
            <feComposite in="shadowOffsetInner1" in2="SourceAlpha" operator="arithmetic" k2="-1" k3="1" result="shadowInnerInner1"></feComposite>
            <feColorMatrix values="0 0 0 0 1   0 0 0 0 1   0 0 0 0 1  0 0 0 0.25 0" type="matrix" in="shadowInnerInner1"></feColorMatrix>
        </filter>
        <path d="M31,23 L17,23 L17,17 L50,17 L50,23 L37,23 L37,51 L31,51 L31,23 Z" id="path-9"></path>
    </defs>
    <g id="Mobile-Portrait" stroke="none" stroke-width="1" fill="none" fill-rule="evenodd">
        <g id="Instructions-—-You-can-remove-this" transform="translate(17.000000, 28.000000)">
            <text id="Sketch-Wireframing-K" font-family="AvenirNext-Bold, Avenir Next" font-size="32.2200012" font-weight="bold" fill="#4A4A4A">
                <tspan x="0" y="32">Sketch </tspan>
                <tspan x="0" y="76">Wireframing </tspan>
                <tspan x="0" y="120">Kit — v1.3</tspan>
            </text>
            <text id="This-is-a-collection" font-family="AvenirNext-Regular, Avenir Next" font-size="12.1599998" font-weight="normal" fill="#8C8C8C">
                <tspan x="0" y="165">This is a collection of symbols and text styles for </tspan>
                <tspan x="0" y="181">quickly mocking up web apps, created by your </tspan>
                <tspan x="0" y="197">friends at Bohemian Coding, and released under </tspan>
                <tspan x="0" y="213">the MIT license.</tspan>
            </text>
            <g id="Symbols-Icon-+-Symbols-—-Usage-+-Use-the-toolbar-Symb" transform="translate(0.000000, 460.000000)">
                <g id="Symbols-Icon" transform="translate(0.000000, 63.000000)">
                    <g id="Rectangle-519">
                        <use fill="black" fill-opacity="1" filter="url(#filter-3)" xlink:href="#path-2"></use>
                        <use fill="url(#linearGradient-1)" fill-rule="evenodd" xlink:href="#path-2"></use>
                        <use fill="black" fill-opacity="1" filter="url(#filter-4)" xlink:href="#path-2"></use>
                        <rect stroke="#604B69" stroke-width="2" x="1" y="1" width="64" height="64" rx="12"></rect>
                        <rect stroke="#7A6186" stroke-width="1" x="0.5" y="0.5" width="65" height="65" rx="12"></rect>
                    </g>
                    <g id="Sync-copy">
                        <use fill="#FFFFFF" fill-rule="evenodd" xlink:href="#path-5"></use>
                        <path stroke-opacity="0.204532399" stroke="#000000" stroke-width="1" d="M19.5050344,19.2121411 L13.7928932,13.5 L30.5,13.5 L30.5,13.7235699 C30.6451716,13.701728 30.7906875,13.6814715 30.9365287,13.6628071 L31.5,13.5906952 L31.5,19.7247949 L31.10665,19.8106729 C30.9030998,19.8551129 30.700841,19.9042389 30.5,19.9579969 L30.5,30.2071068 L24.1069742,23.814081 C21.8064789,26.2895171 20.5,29.5407473 20.5,33 C20.5,39.3770881 24.9566529,44.8466324 31.10665,46.1893271 L31.5,46.2752051 L31.5,53.4093048 L30.9365287,53.3371929 C21.0152048,52.0674825 13.5,43.5912475 13.5,33.5 C13.5,28.0467068 15.6944803,22.9439016 19.5050344,19.2121411 Z M47.4949656,47.7878589 L52.2071068,52.5 L39.7618871,52.5 C38.8900117,52.787187 37.9974211,53.0141478 37.0891611,53.178749 L36.5,53.2855208 L36.5,52.5 L35.5,52.5 L35.5,35.7928932 L42.8777617,43.1706549 C45.7898181,40.6277963 47.5,36.9544464 47.5,33 C47.5,26.6229119 43.0433471,21.1533676 36.89335,19.8106729 L36.5,19.7247949 L36.5,13.7144792 L37.0891611,13.821251 C46.5338722,15.5328867 53.5,23.7915144 53.5,33.5 C53.5,38.9532932 51.3055197,44.0560984 47.4949656,47.7878589 Z"></path>
                    </g>
                </g>
                <text id="Symbols-—-Usage" font-family="AvenirNext-Bold, Avenir Next" font-size="22.7299995" font-weight="bold" fill="#4A4A4A">
                    <tspan x="0" y="33">Symbols — Usage</tspan>
                </text>
                <text id="Use-the-toolbar-Symb" font-family="AvenirNext-Regular, Avenir Next" font-size="21.877551" font-weight="normal" fill="#4A4A4A">
                    <tspan x="96" y="91">Use the toolbar Symbols icon to add symbols from the predefined library to your </tspan>
                    <tspan x="96" y="121">document.</tspan>
                    <tspan x="96" y="161">We have grouped them for your convenience, so you’ll have no trouble finding the </tspan>
                    <tspan x="96" y="191">perfect symbol for your design.</tspan>
                </text>
            </g>
            <g id="Styled-Text-Icon-+-Text-Styles-—-Usage-+-Use-the-toolbar-Styl" transform="translate(0.000000, 733.000000)">
                <g id="Styled-Text-Icon" transform="translate(0.000000, 53.000000)">
                    <g id="Rectangle-524">
                        <use fill="black" fill-opacity="1" filter="url(#filter-7)" xlink:href="#path-6"></use>
                        <use fill="url(#linearGradient-1)" fill-rule="evenodd" xlink:href="#path-6"></use>
                        <use fill="black" fill-opacity="1" filter="url(#filter-8)" xlink:href="#path-6"></use>
                        <rect stroke="#604B69" stroke-width="2" x="1" y="1" width="64" height="64" rx="12"></rect>
                        <rect stroke="#7A6186" stroke-width="1" x="0.5" y="0.5" width="65" height="65" rx="12"></rect>
                    </g>
                    <g id="Rectangle-697">
                        <use fill="#FFFFFF" fill-rule="evenodd" xlink:href="#path-9"></use>
                        <path stroke-opacity="0.204532399" stroke="#000000" stroke-width="1" d="M30.5,23.5 L16.5,23.5 L16.5,16.5 L50.5,16.5 L50.5,23.5 L37.5,23.5 L37.5,51.5 L30.5,51.5 L30.5,23.5 Z"></path>
                    </g>
                </g>
                <text id="Text-Styles-—-Usage" font-family="AvenirNext-Bold, Avenir Next" font-size="22.7299995" font-weight="bold" fill="#4A4A4A">
                    <tspan x="0" y="23">Text Styles — Usage</tspan>
                </text>
                <text id="Use-the-toolbar-Styl" font-family="AvenirNext-Regular, Avenir Next" font-size="20" font-weight="normal" fill="#4A4A4A">
                    <tspan x="96" y="78">Use the toolbar Styled Text icon to add styled text layers  from the predefined library to your </tspan>
                    <tspan x="96" y="105">document.</tspan>
                    <tspan x="96" y="142">To update text layers that are using a shared text style, simply click the sync arrows that appear </tspan>
                    <tspan x="96" y="169">to the right of the style’s name in the Inspector. To reset unsynced changes, hold down the </tspan>
                    <tspan x="96" y="196">Option key and click on the reset arrow that appears in its place.</tspan>
                </text>
            </g>
            <g id="Document-Structure-+-The-document-+-List" transform="translate(0.000000, 226.000000)" fill="#4A4A4A">
                <text id="Document-Structure" font-family="AvenirNext-Bold, Avenir Next" font-size="22.7299995" font-weight="bold">
                    <tspan x="0" y="23">Document Structure</tspan>
                </text>
                <text id="The-document" font-family="AvenirNext-Regular, Avenir Next" font-size="21.9534884" font-weight="normal">
                    <tspan x="0" y="78">The document has 2 pages, as follows:</tspan>
                    <tspan x="0" y="118">1.	Welcome page (this one), with some default artboards for Responsive Web Design</tspan>
                    <tspan x="0" y="158">2.	A collection of all symbols available in the document</tspan>
                </text>
            </g>
        </g>
    </g>
</svg>