
<svg width="295px" height="209px" viewBox="0 0 295 209" version="1.1" xmlns="http://www.w3.org/2000/svg" xmlns:xlink="http://www.w3.org/1999/xlink">
    <!-- Generator: Sketch 49.3 (51167) - http://www.bohemiancoding.com/sketch -->
    <desc>Created with Sketch.</desc>
    <defs></defs>
    <g id="Page-1" stroke="none" stroke-width="1" fill="none" fill-rule="evenodd">
        <g id="Sentence-Weather-App" transform="translate(-40.000000, -40.000000)">
            <g id="weather-bg" transform="translate(40.000000, 40.000000)">
                <path d="M234.998125,97.5 C232.93,97.5 231.248125,99.1875 231.248125,101.25 L231.248125,116.25 C231.248125,118.33125 232.93,120 234.998125,120 C237.071875,120 238.748125,118.33125 238.748125,116.25 L238.748125,101.25 C238.748125,99.1875 237.071875,97.5 234.998125,97.5 L234.998125,97.5 Z M202.346875,87.35625 L194.846875,94.85625 C193.3825,96.31875 193.3825,98.68125 194.846875,100.14375 C195.58,100.875 196.54,101.25 197.5,101.25 C198.458125,101.25 199.42,100.875 200.15125,100.14375 L207.65125,92.64375 C209.115625,91.18125 209.115625,88.81875 207.65125,87.35625 C206.18875,85.875 203.813125,85.875 202.346875,87.35625 L202.346875,87.35625 Z M267.649375,87.35625 C266.18875,85.875 263.81125,85.875 262.346875,87.35625 C260.8825,88.81875 260.8825,91.18125 262.346875,92.64375 L269.846875,100.14375 C270.58,100.875 271.538125,101.25 272.498125,101.25 C273.458125,101.25 274.418125,100.875 275.149375,100.14375 C276.61375,98.68125 276.61375,96.31875 275.149375,94.85625 L267.649375,87.35625 L267.649375,87.35625 Z M234.998125,26.25 C216.390625,26.25 201.248125,41.38125 201.248125,60 C201.248125,78.61875 216.390625,93.75 234.998125,93.75 C253.609375,93.75 268.748125,78.61875 268.748125,60 C268.748125,41.38125 253.609375,26.25 234.998125,26.25 L234.998125,26.25 Z M234.998125,86.25 C220.526875,86.25 208.748125,74.475 208.748125,60 C208.748125,45.525 220.526875,33.75 234.998125,33.75 C249.475,33.75 261.248125,45.525 261.248125,60 C261.248125,74.475 249.475,86.25 234.998125,86.25 L234.998125,86.25 Z M197.5,60 C197.5,57.9375 195.821875,56.25 193.75,56.25 L178.75,56.25 C176.68,56.25 175,57.9375 175,60 C175,62.08125 176.68,63.75 178.75,63.75 L193.75,63.75 C195.821875,63.75 197.5,62.08125 197.5,60 L197.5,60 Z M291.248125,56.25 L276.248125,56.25 C274.178125,56.25 272.498125,57.9375 272.498125,60 C272.498125,62.08125 274.178125,63.75 276.248125,63.75 L291.248125,63.75 C293.32,63.75 294.998125,62.08125 294.998125,60 C294.998125,57.9375 293.32,56.25 291.248125,56.25 L291.248125,56.25 Z M194.846875,19.85625 C193.3825,21.31875 193.3825,23.68125 194.846875,25.14375 L202.346875,32.64375 C203.08,33.375 204.04,33.75 204.998125,33.75 C205.958125,33.75 206.92,33.375 207.65125,32.64375 C209.115625,31.18125 209.115625,28.81875 207.65125,27.35625 L200.15125,19.85625 C198.68875,18.375 196.313125,18.375 194.846875,19.85625 L194.846875,19.85625 Z M269.846875,19.85625 L262.346875,27.35625 C260.8825,28.81875 260.8825,31.18125 262.346875,32.64375 C263.08,33.375 264.038125,33.75 264.998125,33.75 C265.958125,33.75 266.918125,33.375 267.649375,32.64375 L275.149375,25.14375 C276.61375,23.68125 276.61375,21.31875 275.149375,19.85625 C273.68875,18.375 271.31125,18.375 269.846875,19.85625 L269.846875,19.85625 Z M231.248125,3.75 L231.248125,18.75 C231.248125,20.83125 232.93,22.5 234.998125,22.5 C237.071875,22.5 238.748125,20.83125 238.748125,18.75 L238.748125,3.75 C238.748125,1.6875 237.071875,0 234.998125,0 C232.93,0 231.248125,1.6875 231.248125,3.75 L231.248125,3.75 Z" id="145" fill="#FFC800"></path>
                <path d="M172.868968,174.332579 C171.248465,154.575035 154.658428,139 134.498383,139 C116.609843,139 101.178308,150.620026 96.7175485,167.000063 L96.0000469,167.000063 C84.420271,167.000063 75,176.415084 75,188.000109 C75,199.585135 84.420271,209.000156 96.0000469,209.000156 L169.498461,209.000156 C179.147982,209.000156 186.9985,201.142639 186.9985,191.500117 C186.9985,182.995098 180.911986,175.907582 172.868968,174.332579 L172.868968,174.332579 Z M169.498461,202.000141 L96.0000469,202.000141 C88.2825296,202.000141 82.0000156,195.717627 82.0000156,188.000109 C82.0000156,180.282592 88.2825296,174.000078 96.0000469,174.000078 L99.5000547,174.000078 C101.185308,174.000078 102.630812,172.810075 102.940562,171.147572 C105.679318,156.570039 118.951348,146.000016 134.498383,146.000016 C151.868922,146.000016 165.998453,160.122547 165.998453,177.500086 C165.998453,179.44259 167.568207,181.000094 169.498461,181.000094 C175.289224,181.000094 179.998484,185.707604 179.998484,191.500117 C179.998484,197.29263 175.289224,202.000141 169.498461,202.000141 L169.498461,202.000141 Z" id="146" fill="#E7E7E7"></path>
                <path d="M66.4119752,73.9759996 C65.312333,60.5689151 54.0546571,50 40.3744434,50 C28.2356287,50 17.7640901,57.8851232 14.7371053,69.0002969 L14.2502227,69.0002969 C6.39241238,69.0002969 0,75.3891467 0,83.2505195 C0,91.1118924 6.39241238,97.5007422 14.2502227,97.5007422 L64.1248145,97.5007422 C70.6727918,97.5007422 76,92.1687839 76,85.6255566 C76,79.8542165 71.8698105,75.0447663 66.4119752,73.9759996 L66.4119752,73.9759996 Z M64.1248145,92.750668 L14.2502227,92.750668 C9.01326583,92.750668 4.75007422,88.4874764 4.75007422,83.2505195 C4.75007422,78.0135627 9.01326583,73.7503711 14.2502227,73.7503711 L16.6252598,73.7503711 C17.7688401,73.7503711 18.7497305,72.9428585 18.9599212,71.8147159 C20.8183878,61.9226863 29.8245285,54.7500742 40.3744434,54.7500742 C52.1617525,54.7500742 61.7497773,64.333349 61.7497773,76.1254082 C61.7497773,77.4435538 62.8149815,78.5004453 64.1248145,78.5004453 C68.0543133,78.5004453 71.2499258,81.6948702 71.2499258,85.6255566 C71.2499258,89.5562431 68.0543133,92.750668 64.1248145,92.750668 L64.1248145,92.750668 Z" id="146-copy" fill="#F0F0F0" transform="translate(38.000000, 73.750371) scale(-1, 1) translate(-38.000000, -73.750371) "></path>
            </g>
        </g>
    </g>
</svg>