
<svg width="294px" height="210px" viewBox="0 0 294 210" version="1.1" xmlns="http://www.w3.org/2000/svg" xmlns:xlink="http://www.w3.org/1999/xlink">
    <!-- Generator: Sketch 49.3 (51167) - http://www.bohemiancoding.com/sketch -->
    <desc>Created with Sketch.</desc>
    <defs></defs>
    <g id="Page-1" stroke="none" stroke-width="1" fill="none" fill-rule="evenodd">
        <g id="Sentence-Weather-App" transform="translate(-41.000000, -40.000000)">
            <g id="weather-rain" transform="translate(41.000000, 40.000000)">
                <path d="M233.645357,175.451967 L205.86604,203.233269 C204.314256,204.781084 204.314256,207.281401 205.86604,208.829217 C206.639948,209.603124 207.65595,210 208.671952,210 C209.685969,210 210.701971,209.603124 211.477863,208.829217 L239.259165,181.047915 C240.808964,179.5001 240.808964,176.999783 239.259165,175.451967 C237.70738,173.884308 235.197141,173.884308 233.645357,175.451967 L233.645357,175.451967 Z M259.44228,175.451967 L243.567251,191.326997 C242.017451,192.874812 242.017451,195.375129 243.567251,196.922945 C244.343143,197.696852 245.359145,198.093728 246.375146,198.093728 C247.389164,198.093728 248.405166,197.696852 249.181058,196.922945 L265.054103,181.047915 C266.605887,179.5001 266.605887,176.999783 265.054103,175.451967 C263.504303,173.884308 260.994064,173.884308 259.44228,175.451967 L259.44228,175.451967 Z M213.462242,175.451967 C211.910458,173.884308 209.400219,173.884308 207.850419,175.451967 L195.944147,187.358239 C194.394347,188.906055 194.394347,191.406372 195.944147,192.954187 C196.718055,193.728095 197.734057,194.124971 198.750059,194.124971 C199.76606,194.124971 200.780078,193.728095 201.55597,192.954187 L213.462242,181.047915 C215.012042,179.5001 215.012042,176.999783 213.462242,175.451967 L213.462242,175.451967 Z M277.976377,131.001885 C276.138842,108.59825 257.326932,90.9372803 234.468875,90.9372803 C214.182571,90.9372803 196.68432,104.113555 191.626139,122.687339 L190.812544,122.687339 C177.68191,122.687339 167,133.363296 167,146.499883 C167,159.63647 177.68191,170.312427 190.812544,170.312427 L274.154463,170.312427 C285.096327,170.312427 293.99825,161.402567 293.99825,150.46864 C293.99825,140.82456 287.096581,132.787826 277.976377,131.001885 L277.976377,131.001885 Z M274.154463,162.374912 L190.812544,162.374912 C182.061434,162.374912 174.937515,155.250993 174.937515,146.499883 C174.937515,137.748773 182.061434,130.624854 190.812544,130.624854 L194.781301,130.624854 C196.692258,130.624854 198.331355,129.275476 198.684574,127.390316 C201.788142,110.860442 216.83767,98.8747949 234.468875,98.8747949 C254.163833,98.8747949 270.185706,114.888731 270.185706,134.593611 C270.185706,136.796271 271.965694,138.562368 274.154463,138.562368 C280.720772,138.562368 286.060735,143.900347 286.060735,150.46864 C286.060735,157.036934 280.720772,162.374912 274.154463,162.374912 L274.154463,162.374912 Z" id="147" fill="#000000"></path>
                <path d="M33.8357745,125.58927 L15.564016,143.862334 C14.5433349,144.880404 14.5433349,146.52498 15.564016,147.543051 C16.0730514,148.052086 16.7413234,148.31313 17.4095955,148.31313 C18.0765623,148.31313 18.7448343,148.052086 19.2551749,147.543051 L37.5282385,129.269987 C38.5476144,128.251916 38.5476144,126.607341 37.5282385,125.58927 C36.5075574,124.558147 34.8564556,124.558147 33.8357745,125.58927 L33.8357745,125.58927 Z M50.8036193,125.58927 L40.3618686,136.031021 C39.3424927,137.049091 39.3424927,138.693667 40.3618686,139.711738 C40.8722092,140.220773 41.5404812,140.481817 42.2087533,140.481817 C42.8757201,140.481817 43.5439921,140.220773 44.0543327,139.711738 L54.4947781,129.269987 C55.5154592,128.251916 55.5154592,126.607341 54.4947781,125.58927 C53.4754022,124.558147 51.8243004,124.558147 50.8036193,125.58927 L50.8036193,125.58927 Z M20.5603937,125.58927 C19.5397126,124.558147 17.8886108,124.558147 16.8692349,125.58927 L9.03792188,133.420583 C8.01854597,134.438654 8.01854597,136.083229 9.03792188,137.1013 C9.54695722,137.610335 10.2152293,137.871379 10.8835013,137.871379 C11.5517733,137.871379 12.2187402,137.610335 12.7290807,137.1013 L20.5603937,129.269987 C21.5797696,128.251916 21.5797696,126.607341 20.5603937,125.58927 L20.5603937,125.58927 Z M10.5383368,94.3523682 C11.7469695,79.6164476 24.120444,68 39.1552597,68 C52.4985118,68 64.0079315,76.666653 67.3349343,88.8835013 L67.870074,88.8835013 C76.506707,88.8835013 83.5327,95.9055786 83.5327,104.546127 C83.5327,113.186676 76.506707,120.208753 67.870074,120.208753 L13.0521883,120.208753 C5.85521168,120.208753 1.42108547e-14,114.348321 1.42108547e-14,107.156565 C1.42108547e-14,100.813201 4.5395511,95.5270652 10.5383368,94.3523682 L10.5383368,94.3523682 Z M13.0521883,114.987878 L67.870074,114.987878 C73.6260891,114.987878 78.3118247,110.302142 78.3118247,104.546127 C78.3118247,98.7901122 73.6260891,94.1043766 67.870074,94.1043766 L65.2596364,94.1043766 C64.0027106,94.1043766 62.9245999,93.2168278 62.6922709,91.9768699 C60.6509087,81.1043971 50.752129,73.2208753 39.1552597,73.2208753 C26.2009628,73.2208753 15.662626,83.7539913 15.662626,96.7148143 C15.662626,98.1636072 14.4918447,99.325252 13.0521883,99.325252 C8.7332192,99.325252 5.22087533,102.836291 5.22087533,107.156565 C5.22087533,111.476839 8.7332192,114.987878 13.0521883,114.987878 L13.0521883,114.987878 Z" id="147-copy" fill="#E1E1E1"></path>
                <path d="M161.851927,28.6823687 L152.751667,37.7832784 C152.243316,38.2903291 152.243316,39.109411 152.751667,39.6164617 C153.005192,39.869987 153.338026,40 153.670859,40 C154.003042,40 154.335875,39.869987 154.590051,39.6164617 L163.690961,30.5155519 C164.198661,30.0085012 164.198661,29.1894194 163.690961,28.6823687 C163.18261,28.1688173 162.360278,28.1688173 161.851927,28.6823687 L161.851927,28.6823687 Z M170.302771,28.6823687 L165.102252,33.8828885 C164.594551,34.3899392 164.594551,35.2090211 165.102252,35.7160718 C165.356427,35.9695971 165.68926,36.0996101 166.022094,36.0996101 C166.354277,36.0996101 166.68711,35.9695971 166.941285,35.7160718 L172.141155,30.5155519 C172.649506,30.0085012 172.649506,29.1894194 172.141155,28.6823687 C171.633454,28.1688173 170.811122,28.1688173 170.302771,28.6823687 L170.302771,28.6823687 Z M155.240116,28.6823687 C154.731765,28.1688173 153.909433,28.1688173 153.401732,28.6823687 L149.501342,32.5827586 C148.993641,33.0898093 148.993641,33.9088911 149.501342,34.4159418 C149.754867,34.6694672 150.087701,34.7994802 150.420534,34.7994802 C150.753367,34.7994802 151.08555,34.6694672 151.339726,34.4159418 L155.240116,30.5155519 C155.747817,30.0085012 155.747817,29.1894194 155.240116,28.6823687 L155.240116,28.6823687 Z M150.248625,13.124812 C150.850585,5.78557833 157.013201,0 164.501299,0 C171.146914,0 176.879187,4.31643147 178.536202,10.4010397 L178.802729,10.4010397 C183.104209,10.4010397 186.603509,13.8983893 186.603509,18.2018195 C186.603509,22.5052496 183.104209,26.0025992 178.802729,26.0025992 L151.50065,26.0025992 C147.916192,26.0025992 145,23.0838075 145,19.5019494 C145,16.3426336 147.260926,13.7098705 150.248625,13.124812 L150.248625,13.124812 Z M151.50065,23.4023393 L178.802729,23.4023393 C181.669516,23.4023393 184.003249,21.068606 184.003249,18.2018195 C184.003249,15.3350329 181.669516,13.0012996 178.802729,13.0012996 L177.502599,13.0012996 C176.876586,13.0012996 176.339633,12.5592554 176.223921,11.9416937 C175.20722,6.52665241 170.277127,2.60025992 164.501299,2.60025992 C158.049404,2.60025992 152.80078,7.84628432 152.80078,14.3014296 C152.80078,15.0230017 152.217671,15.6015595 151.50065,15.6015595 C149.349585,15.6015595 147.60026,17.3502343 147.60026,19.5019494 C147.60026,21.6536645 149.349585,23.4023393 151.50065,23.4023393 L151.50065,23.4023393 Z" id="147-copy-2" fill="#F6F6F6"></path>
            </g>
        </g>
    </g>
</svg>