
<svg width="295px" height="210px" viewBox="0 0 295 210" version="1.1" xmlns="http://www.w3.org/2000/svg" xmlns:xlink="http://www.w3.org/1999/xlink">
    <!-- Generator: Sketch 49.3 (51167) - http://www.bohemiancoding.com/sketch -->
    <desc>Created with Sketch.</desc>
    <defs></defs>
    <g id="Page-1" stroke="none" stroke-width="1" fill="none" fill-rule="evenodd">
        <g id="Sentence-Weather-App" transform="translate(-40.000000, -40.000000)">
            <g id="weather-sleet" transform="translate(40.000000, 40.000000)">
                <path d="M278.976377,109.064605 C277.138842,86.6609701 258.326932,69 235.468875,69 C215.182571,69 197.68432,82.1762743 192.626139,100.750059 L191.812544,100.750059 C178.68191,100.750059 168,111.426016 168,124.562603 C168,137.699189 178.68191,148.375146 191.812544,148.375146 L275.154463,148.375146 C286.096327,148.375146 294.99825,139.465286 294.99825,128.53136 C294.99825,118.88728 288.096581,110.850546 278.976377,109.064605 L278.976377,109.064605 Z M275.154463,140.437632 L191.812544,140.437632 C183.061434,140.437632 175.937515,133.313712 175.937515,124.562603 C175.937515,115.811493 183.061434,108.687573 191.812544,108.687573 L195.781301,108.687573 C197.692258,108.687573 199.331355,107.338196 199.684574,105.453036 C202.788142,88.9231618 217.83767,76.9375146 235.468875,76.9375146 C255.163833,76.9375146 271.185706,92.9514505 271.185706,112.656331 C271.185706,114.858991 272.965694,116.625088 275.154463,116.625088 C281.720772,116.625088 287.060735,121.963066 287.060735,128.53136 C287.060735,135.099653 281.720772,140.437632 275.154463,140.437632 Z M218.65675,170.56272 L222.578695,172.870022 C223.938524,173.668704 224.402856,175.4351 223.619296,176.81272 C222.835736,178.194566 221.102784,178.663633 219.755392,177.864951 L215.825155,175.553423 L215.825155,180.172253 C215.825155,181.773842 214.568972,183.06272 213.001852,183.06272 C211.434732,183.06272 210.170257,181.773842 210.170257,180.172253 L210.170257,175.553423 L206.244166,177.864951 C204.888483,178.663633 203.167968,178.194566 202.376116,176.81272 C201.600848,175.426648 202.061034,173.664478 203.416717,172.870022 L207.334516,170.56272 L203.416717,168.255417 C202.061034,167.456736 201.600848,165.694566 202.376116,164.31272 C203.167968,162.930874 204.888483,162.461807 206.244166,163.256263 L210.170257,165.563565 L210.170257,160.953186 C210.170257,159.355823 211.434732,158.06272 213.001852,158.06272 C214.568972,158.06272 215.825155,159.355823 215.825155,160.953186 L215.825155,165.563565 L219.755392,163.256263 C221.102784,162.461807 222.835736,162.930874 223.619296,164.31272 C224.402856,165.694566 223.938524,167.456736 222.578695,168.255417 L218.65675,170.56272 Z M212.196335,194.656933 C213.524101,193.381531 215.674709,193.381531 217.004175,194.656933 C218.331942,195.916191 218.331942,197.950376 217.004175,199.209634 L206.803665,208.896232 C206.138932,209.525861 205.270189,209.848748 204.399745,209.848748 C203.529301,209.848748 202.658858,209.525861 201.995825,208.896232 C200.668058,207.636974 200.668058,205.602789 201.995825,204.343531 L212.196335,194.656933 Z M255.062753,160.792295 C256.312416,162.040357 256.312416,164.056458 255.062753,165.30452 L245.462273,174.905 C244.836642,175.529032 244.019001,175.849048 243.19976,175.849048 C242.380519,175.849048 241.561278,175.529032 240.937247,174.905 C239.687584,173.656938 239.687584,171.640837 240.937247,170.392775 L250.537727,160.792295 C251.787389,159.528232 253.811491,159.528232 255.062753,160.792295 Z M254.236397,200.469341 C255.371659,201.131264 255.763967,202.610855 255.104335,203.768335 C254.455117,204.922274 253.003926,205.31518 251.868663,204.653258 L248.584388,202.717046 L248.584388,206.58239 C248.584388,207.920394 247.522032,209 246.216654,209 C244.900861,209 243.841977,207.920394 243.841977,206.58239 L243.841977,202.713506 L240.55423,204.653258 C239.425911,205.31518 237.978191,204.922274 237.315087,203.768335 C236.665869,202.607316 237.051234,201.131264 238.183024,200.465802 L241.4673,198.52959 L238.183024,196.596918 C237.051234,195.927916 236.665869,194.451864 237.315087,193.290845 C237.978191,192.140445 239.425911,191.744 240.55423,192.413002 L243.841977,194.349213 L243.841977,190.48033 C243.841977,189.145866 244.900861,188.06272 246.216654,188.06272 C247.522032,188.06272 248.584388,189.145866 248.584388,190.48033 L248.584388,194.349213 L251.868663,192.413002 C253.003926,191.744 254.455117,192.136906 255.104335,193.290845 C255.763967,194.451864 255.371659,195.927916 254.236397,196.596918 L250.94865,198.52959 L254.236397,200.469341 Z" id="147" fill="#000000"></path>
                <path d="M72.4878768,78.1695169 C71.2876305,63.5358445 59.0000118,52 44.0695183,52 C30.8188511,52 19.3892919,60.6065177 16.0853742,72.7385968 L15.5539476,72.7385968 C6.97724167,72.7385968 0,79.71195 0,88.2925445 C0,96.8731389 6.97724167,103.846492 15.5539476,103.846492 L69.9914682,103.846492 C77.1385071,103.846492 82.9530912,98.0267234 82.9530912,90.8848691 C82.9530912,84.5855203 78.4450387,79.336063 72.4878768,78.1695169 L72.4878768,78.1695169 Z M69.9914682,98.6618429 L15.5539476,98.6618429 C9.83787187,98.6618429 5.18464921,94.0086202 5.18464921,88.2925445 C5.18464921,82.5764687 9.83787187,77.923246 15.5539476,77.923246 L18.1462722,77.923246 C19.3944765,77.923246 20.4651066,77.0418557 20.6958235,75.8105015 C22.7230213,65.0134695 32.5531162,57.1846492 44.0695183,57.1846492 C56.9339291,57.1846492 67.3991436,67.644679 67.3991436,80.5155706 C67.3991436,81.9543108 68.5618011,83.1078953 69.9914682,83.1078953 C74.2804692,83.1078953 77.768442,86.5945718 77.768442,90.8848691 C77.768442,95.1751663 74.2804692,98.6618429 69.9914682,98.6618429 Z M31.0881252,138.339037 L33.649873,139.846127 C34.5380901,140.367812 34.8413837,141.521592 34.3295757,142.42143 C33.8177677,143.324028 32.6858326,143.630415 31.8057396,143.108729 L29.2385758,141.598879 L29.2385758,144.61582 C29.2385758,145.661951 28.4180582,146.503823 27.3944423,146.503823 C26.3708263,146.503823 25.5448928,145.661951 25.5448928,144.61582 L25.5448928,141.598879 L22.980437,143.108729 C22.094928,143.630415 20.9711168,143.324028 20.4538929,142.42143 C19.9475009,141.516072 20.2480865,140.365052 21.1335955,139.846127 L23.6926354,138.339037 L21.1335955,136.831946 C20.2480865,136.310261 19.9475009,135.159241 20.4538929,134.256643 C20.9711168,133.354045 22.094928,133.047658 22.980437,133.566583 L25.5448928,135.073674 L25.5448928,132.062253 C25.5448928,131.018883 26.3708263,130.17425 27.3944423,130.17425 C28.4180582,130.17425 29.2385758,131.018883 29.2385758,132.062253 L29.2385758,135.073674 L31.8057396,133.566583 C32.6858326,133.047658 33.8177677,133.354045 34.3295757,134.256643 C34.8413837,135.159241 34.5380901,136.310261 33.649873,136.831946 L31.0881252,138.339037 Z M28.8682922,112.076966 C29.7355666,111.243895 31.1403067,111.243895 32.0086916,112.076966 C32.8759659,112.899491 32.8759659,114.228187 32.0086916,115.050713 L25.3458924,121.377833 C24.9117,121.789096 24.3442516,122 23.7756927,122 C23.2071338,122 22.638575,121.789096 22.205493,121.377833 C21.3382187,120.555307 21.3382187,119.226612 22.205493,118.404086 L28.8682922,112.076966 Z M56.8679057,132.957162 C57.6841639,133.772375 57.6841639,135.089257 56.8679057,135.90447 L50.5970358,142.17534 C50.1883841,142.582947 49.6543151,142.791976 49.1192008,142.791976 C48.5840866,142.791976 48.0489724,142.582947 47.6413658,142.17534 C46.8251076,141.360127 46.8251076,140.043244 47.6413658,139.228031 L53.9122357,132.957162 C54.7284939,132.131497 56.0506023,132.131497 56.8679057,132.957162 Z M56.3281439,118.873532 C57.0696779,119.305888 57.3259266,120.272332 56.8950659,121.028378 C56.4710083,121.782112 55.5231147,122.038751 54.7815807,121.606395 L52.6363478,120.341694 L52.6363478,122.866471 C52.6363478,123.740432 51.9424353,124.445613 51.0897846,124.445613 C50.2303309,124.445613 49.538686,123.740432 49.538686,122.866471 L49.538686,120.339382 L47.3911855,121.606395 C46.6541869,122.038751 45.708561,121.782112 45.2754326,121.028378 C44.8513749,120.27002 45.1030883,119.305888 45.8423546,118.87122 L47.9875874,117.606519 L45.8423546,116.344131 C45.1030883,115.90715 44.8513749,114.943018 45.2754326,114.184661 C45.708561,113.433239 46.6541869,113.174287 47.3911855,113.611268 L49.538686,114.875969 L49.538686,112.34888 C49.538686,111.477231 50.2303309,110.769738 51.0897846,110.769738 C51.9424353,110.769738 52.6363478,111.477231 52.6363478,112.34888 L52.6363478,114.875969 L54.7815807,113.611268 C55.5231147,113.174287 56.4710083,113.430927 56.8950659,114.184661 C57.3259266,114.943018 57.0696779,115.90715 56.3281439,116.344131 L54.1806434,117.606519 L56.3281439,118.873532 Z" id="147" fill="#E1E1E1"></path>
                <path d="M178.458304,11.3570525 C177.937421,5.00632822 172.604838,0 166.125299,0 C160.374771,0 155.414569,3.73505836 153.980734,9.00014063 L153.750105,9.00014063 C150.027985,9.00014063 147,12.0264379 147,15.7502461 C147,19.4740543 150.027985,22.5003516 153.750105,22.5003516 L177.374912,22.5003516 C180.476586,22.5003516 183,19.9746871 183,16.8752637 C183,14.141471 181.043594,11.8633104 178.458304,11.3570525 L178.458304,11.3570525 Z M177.374912,20.2503164 L153.750105,20.2503164 C151.269442,20.2503164 149.250035,18.2309099 149.250035,15.7502461 C149.250035,13.2695823 151.269442,11.2501758 153.750105,11.2501758 L154.875123,11.2501758 C155.416819,11.2501758 155.881451,10.8676698 155.981578,10.3332865 C156.861342,5.64758824 161.127408,2.25003516 166.125299,2.25003516 C171.708199,2.25003516 176.249895,6.78948109 176.249895,12.3751934 C176.249895,12.9995781 176.754465,13.5002109 177.374912,13.5002109 C179.236254,13.5002109 180.749965,15.0133596 180.749965,16.8752637 C180.749965,18.7371678 179.236254,20.2503164 177.374912,20.2503164 Z M161.359592,28.7898291 L162.471339,29.4438765 C162.856808,29.6702776 162.988431,30.1709952 162.766317,30.561507 C162.544202,30.9532168 162.052965,31.0861824 161.671022,30.8597814 L160.556924,30.2045361 L160.556924,31.5138289 C160.556924,31.9678288 160.200835,32.333185 159.756606,32.333185 C159.312377,32.333185 158.953938,31.9678288 158.953938,31.5138289 L158.953938,30.2045361 L157.841015,30.8597814 C157.456722,31.0861824 156.96901,30.9532168 156.744545,30.561507 C156.524781,30.1685994 156.655229,29.6690797 157.039523,29.4438765 L158.150095,28.7898291 L157.039523,28.1357816 C156.655229,27.9093806 156.524781,27.4098608 156.744545,27.0181511 C156.96901,26.6264414 157.456722,26.4934757 157.841015,26.7186788 L158.953938,27.3727263 L158.953938,26.0658293 C158.953938,25.6130272 159.312377,25.2464732 159.756606,25.2464732 C160.200835,25.2464732 160.556924,25.6130272 160.556924,26.0658293 L160.556924,27.3727263 L161.671022,26.7186788 C162.052965,26.4934757 162.544202,26.6264414 162.766317,27.0181511 C162.988431,27.4098608 162.856808,27.9093806 162.471339,28.1357816 L161.359592,28.7898291 Z M159.528268,35.6197789 C159.904647,35.2582427 160.514277,35.2582427 160.891139,35.6197789 C161.267519,35.9767388 161.267519,36.5533663 160.891139,36.9103261 L157.999616,39.6561713 C157.811185,39.8346512 157.564923,39.9261794 157.31818,39.9261794 C157.071437,39.9261794 156.824694,39.8346512 156.636745,39.6561713 C156.260365,39.2992114 156.260365,38.7225839 156.636745,38.3656241 L159.528268,35.6197789 Z M171.679546,26.0202216 C172.033786,26.374008 172.033786,26.945509 171.679546,27.2992953 L168.958112,30.0207287 C168.780766,30.1976219 168.54899,30.2883364 168.316761,30.2883364 C168.084532,30.2883364 167.852303,30.1976219 167.67541,30.0207287 C167.32117,29.6669424 167.32117,29.0954414 167.67541,28.741655 L170.396843,26.0202216 C170.751083,25.6618996 171.324852,25.6618996 171.679546,26.0202216 Z M171.4453,37.2674135 C171.767111,37.4550476 171.878318,37.8744651 171.691333,38.202574 C171.5073,38.5296796 171.095933,38.641056 170.774122,38.4534218 L169.843133,37.9045669 L169.843133,39.00027 C169.843133,39.3795519 169.541989,39.6855862 169.171956,39.6855862 C168.79897,39.6855862 168.498809,39.3795519 168.498809,39.00027 L168.498809,37.9035635 L167.566837,38.4534218 C167.246994,38.641056 166.836611,38.5296796 166.648642,38.202574 C166.464609,37.8734617 166.573848,37.4550476 166.894675,37.2664101 L167.825663,36.7175551 L166.894675,36.1697035 C166.573848,35.9800626 166.464609,35.5616484 166.648642,35.2325361 C166.836611,34.906434 167.246994,34.7940542 167.566837,34.9836951 L168.498809,35.5325501 L168.498809,34.4358435 C168.498809,34.0575651 168.79897,33.7505274 169.171956,33.7505274 C169.541989,33.7505274 169.843133,34.0575651 169.843133,34.4358435 L169.843133,35.5325501 L170.774122,34.9836951 C171.095933,34.7940542 171.5073,34.9054306 171.691333,35.2325361 C171.878318,35.5616484 171.767111,35.9800626 171.4453,36.1697035 L170.513327,36.7175551 L171.4453,37.2674135 Z" id="147" fill="#E1E1E1" opacity="0.215466486"></path>
            </g>
        </g>
    </g>
</svg>