
<svg width="36px" height="23px" viewBox="0 0 36 23" version="1.1" xmlns="http://www.w3.org/2000/svg" xmlns:xlink="http://www.w3.org/1999/xlink">
    <!-- Generator: Sketch 49.3 (51167) - http://www.bohemiancoding.com/sketch -->
    <desc>Created with Sketch.</desc>
    <defs></defs>
    <g id="Page-1" stroke="none" stroke-width="1" fill="none" fill-rule="evenodd">
        <g id="Sentence-Weather-App-Extended" transform="translate(-191.000000, -725.000000)" fill="#191919">
            <g id="sw-07" transform="translate(191.000000, 725.000000)">
                <path d="M25.2455067,23 C28.1961069,23 30.5883335,20.6857011 30.5883335,17.829859 C30.5883335,17.829859 30.591143,17.1646509 30.3375922,16.3119072 C32.3020837,15.9524638 34.0537612,14.9393635 35.3334549,13.5090643 C36.9973378,11.6608866 35.1002725,11.7009758 34.4555091,11.6031311 C30.6445221,11.1499199 25.496248,7.308836 27.3898015,1.23023412 C27.7992754,-0.0757208103 27.0175524,-0.0893103518 26.4486436,0.0690078058 C26.4486436,0.0690078058 20.5045994,1.34438627 20.1323504,7.95637765 C19.1343016,7.75661139 18.2535464,7.80349531 17.7928005,7.92376275 C16.3684212,6.55325749 13.9993723,5.54695195 11.6043362,5.54695195 C6.85219127,5.54695195 2.95902848,9.10061703 2.60925488,13.6103064 C1.05002316,14.4786781 0,16.1053462 0,17.9698312 C0,20.748213 2.32690751,23 5.19814141,23 L25.2455067,23 L25.2455067,23 Z M5.64764965,21.074362 C3.70563357,21.074362 2.27352841,19.7147284 2.27352841,17.9562417 C2.27352841,16.5191477 3.21679336,15.2593972 4.69033757,14.8292882 C4.86592673,8.03995333 11.0305109,7.69342002 11.7153086,7.69342002 C13.7521428,7.69342002 15.7735252,8.65963642 17.0735873,10.0899356 C19.7018058,9.25485833 23.3041929,11.2158292 22.902445,15.0066317 C23.928588,14.6043813 24.954731,14.6356373 25.2483161,14.6356373 C26.7211579,14.6356373 28.4995249,15.8824777 28.4995249,17.9283831 C28.4995249,19.665806 27.0435396,21.074362 25.2483161,21.074362 L5.64764965,21.074362 L5.64764965,21.074362 Z M29.3781731,14.4650885 C28.5732724,13.4818852 27.2303665,12.6658332 24.9982771,12.6658332 C24.4911757,10.6450684 23.3800475,9.42608655 22.1614587,8.71603301 C21.8559336,5.30709655 24.050798,3.3406899 25.1408555,2.69450721 C24.2671239,7.07577536 27.8969029,12.4973229 32.9714296,13.0137255 C31.9958562,13.7326122 30.7021153,14.3026935 29.3781731,14.4650885 L29.3781731,14.4650885 Z" id="Fill-332"></path>
            </g>
        </g>
    </g>
</svg>