
<svg width="37px" height="23px" viewBox="0 0 37 23" version="1.1" xmlns="http://www.w3.org/2000/svg" xmlns:xlink="http://www.w3.org/1999/xlink">
    <!-- Generator: Sketch 49.3 (51167) - http://www.bohemiancoding.com/sketch -->
    <desc>Created with Sketch.</desc>
    <defs></defs>
    <g id="Page-1" stroke="none" stroke-width="1" fill="none" fill-rule="evenodd" opacity="0.900000036">
        <g id="Sentence-Weather-App-Extended" transform="translate(-51.000000, -725.000000)" fill="#000000">
            <g id="week-item" transform="translate(40.000000, 692.000000)">
                <g id="sw-03" transform="translate(11.000000, 33.000000)">
                    <path d="M24.9996672,5 C25.553411,5 26,4.4693266 26,3.8148557 L26,1.18435578 C26,0.530673395 25.553411,0 24.9996672,0 C24.4485857,0 24.0006656,0.530673395 24,1.18435578 L24.0006656,3.8148557 C24.0006656,4.4693266 24.4485857,5 24.9996672,5" id="Fill-336"></path>
                    <path d="M17.565941,5.75417745 C17.8931985,6.08194085 18.425761,6.08194085 18.7541373,5.75417745 C19.0819542,5.42585472 19.0819542,4.89393835 18.7541373,4.56617495 L17.4344786,3.2467315 C17.1066617,2.91784945 16.5740991,2.91784945 16.2462822,3.24617217 C15.9179059,3.5744949 15.9179059,4.10641127 16.2462822,4.43417467 L17.565941,5.75417745" id="Fill-337"></path>
                    <path d="M30.4343265,17.2458627 C30.1064485,16.9180458 29.5743461,16.9180458 29.2459085,17.2458627 C28.9180305,17.5736795 28.9180305,18.1056827 29.2459085,18.434059 L30.5658134,19.7537178 C30.8936914,20.0820941 31.4263533,20.0820941 31.7536718,19.7537178 C32.0821094,19.4253415 32.0821094,18.8933383 31.7536718,18.5655214 L30.4343265,17.2458627" id="Fill-338"></path>
                    <path d="M35.8164327,12 L33.1851443,12 C32.5306734,12 32,12.4485857 32,13.0003328 C32,13.5527454 32.5306734,14 33.1851443,14 L35.8164327,14 C36.4693266,14 37,13.5527454 37,13.0003328 C37,12.4485857 36.4693266,12 35.8164327,12" id="Fill-339"></path>
                    <path d="M30.4340529,5.7540731 L31.7532752,4.43500452 C32.0822416,4.10607648 32.0822416,3.57408572 31.7532752,3.24627648 C31.4259872,2.91790784 30.893375,2.91790784 30.5649681,3.24627648 L29.2463052,4.56590446 C28.9178983,4.8937137 28.9178983,5.42570446 29.2463052,5.7546325 C29.5735932,6.08188234 30.1062054,6.08188234 30.4340529,5.7540731" id="Fill-340"></path>
                    <path d="M30,12.3401313 C30,8.91568995 27.3077336,6.13881075 23.9869926,6.13881075 C22.038464,6.13881075 20.3069394,7.09786685 19.2083968,8.58161431 C17.9797806,8.13130958 16.7994591,8.16451789 16.2553392,8.3159478 C14.954603,6.98030942 12.7897143,6 10.6016442,6 C6.26156389,6 2.70385713,9.46163463 2.38446844,13.8544304 C0.960097877,14.699914 0,16.2846148 0,18.1011095 C0,20.806923 2.12625298,23 4.75026294,23 L23.0629548,23 C25.7597287,23 27.9445792,20.7451555 27.9445792,17.9642913 C27.9445792,17.9642913 27.946511,17.6082982 27.8524974,17.0862635 C29.1648243,15.9485466 30,14.2449602 30,12.3401313 L30,12.3401313 Z M23.0674623,21.1237303 L5.16173346,21.1237303 C3.38706562,21.1237303 2.07731439,19.8000469 2.07731439,18.0871621 C2.07731439,16.6877637 2.93953508,15.4610486 4.28599026,15.0412955 C4.4456846,8.42885607 10.07813,8.0914596 10.7040288,8.0914596 C12.5643392,8.0914596 14.4111271,9.03258322 15.5978879,10.4253399 C17.9990985,9.61173621 21.2908626,11.5218784 20.9238232,15.2139787 C21.8600957,14.8221206 22.7983,14.8526723 23.0674623,14.8526723 C24.4113417,14.8526723 26.037262,16.0667682 26.037262,18.0592671 C26.037262,19.7522269 24.7069051,21.1237303 23.0674623,21.1237303 L23.0674623,21.1237303 Z M22.8382236,12.9345601 C22.4686085,11.3618143 21.7448325,10.2885216 20.9025736,9.56723707 C21.6527506,8.67991092 22.7564447,8.11802625 23.9869926,8.11802625 C26.2484707,8.11802625 28.0798042,10.0089076 28.0798042,12.3401313 C28.0798042,13.3822082 27.7127648,14.3366151 27.1055399,15.0738397 C25.666359,12.7260119 22.8382236,12.9345601 22.8382236,12.9345601 L22.8382236,12.9345601 Z" id="Fill-341"></path>
                </g>
            </g>
        </g>
    </g>
</svg>