
<svg width="28px" height="23px" viewBox="0 0 28 23" version="1.1" xmlns="http://www.w3.org/2000/svg" xmlns:xlink="http://www.w3.org/1999/xlink">
    <!-- Generator: Sketch 49.3 (51167) - http://www.bohemiancoding.com/sketch -->
    <desc>Created with Sketch.</desc>
    <defs></defs>
    <g id="Page-1" stroke="none" stroke-width="1" fill="none" fill-rule="evenodd">
        <g id="Sentence-Weather-App-Extended" transform="translate(-250.000000, -725.000000)" fill="#191919">
            <g id="sw-21" transform="translate(250.000000, 725.000000)">
                <path d="M20.9635763,8.67223464 C21.903104,8.30333686 22.8432792,8.33282359 23.1119932,8.33282359 C24.4594482,8.33282359 26.0885672,9.47527742 26.0885672,11.3505078 C26.0885672,12.9440458 24.7547098,14.2345606 23.1119932,14.2345606 L22.9786074,14.2345606 C22.4754971,14.2345606 22.0675699,14.6304356 22.0675699,15.1191625 C22.0675699,15.6053798 22.4754971,16 22.9786074,16 L23.1081082,16 C25.8101406,16 27.9999978,13.8788378 27.9999978,11.2601655 C27.9999978,11.2601655 28.0246029,6.52597734 22.8827769,6.52597734 C21.7710132,2.09104811 17.487777,1.86644708 16.2860103,2.17950829 C14.9832331,0.922244442 12.8140961,0 10.6216489,0 C6.27236729,0 2.70980253,3.25734227 2.38864075,7.39238521 C0.961542833,8.18852684 0,9.67980238 0,11.3887778 C0,13.9365565 2.13028681,16 4.75850389,16 L5.40471247,16 C5.81717226,16 6.20373191,15.5683645 6.20373191,15.1172803 C6.20373191,14.6298083 5.79645215,14.2345606 5.29334186,14.2345606 L5.16966867,14.2345606 C3.39291882,14.2345606 2.08107654,12.9879622 2.08107654,11.3762302 C2.08107654,10.0593656 2.94484633,8.90373682 4.29359631,8.50974395 C4.45482471,2.28490766 10.097171,1.96745481 10.724602,1.96745481 C12.5881173,1.96745481 14.4386826,2.85393875 15.6281467,4.16515704 C18.03427,3.39912951 21.3333008,5.19656511 20.9635763,8.67223464" id="Fill-194"></path>
                <path d="M9.87051381,15.5293644 C10.137268,15.0412036 9.97837809,14.4178598 9.51785574,14.13657 C9.05668749,13.8552802 8.46634046,14.022552 8.20023217,14.5093473 L7.12934007,16.470866 C6.86323178,16.9576613 7.02082989,17.5816878 7.48199814,17.8629776 C7.94381228,18.1449502 8.53286753,17.9776783 8.80026761,17.4902003 L9.87051381,15.5293644" id="Fill-195"></path>
                <path d="M14.8708373,15.5293644 C15.1369179,15.0412036 14.9786904,14.4178598 14.5175702,14.13657 C14.0558042,13.8552802 13.4668103,14.022552 13.2007298,14.5093473 L12.1293035,16.470866 C11.863223,16.9576613 12.0208046,17.5816878 12.4825706,17.8629776 C12.9443366,18.1449502 13.5333305,17.9776783 13.799411,17.4902003 L14.8708373,15.5293644" id="Fill-196"></path>
                <path d="M10.8703635,20.529042 C11.137137,20.0415458 10.9788815,19.4181788 10.5176798,19.1368785 C10.056478,18.8548954 9.46673405,19.0228563 9.19996048,19.5096697 L8.12963652,21.4705787 C7.86286295,21.9580749 8.02111846,22.5828074 8.48232021,22.8634249 C8.94416791,23.1447252 9.53391189,22.9774471 9.80003952,22.4906337 L10.8703635,20.529042" id="Fill-197"></path>
                <path d="M19.8706965,15.5293644 C20.136777,15.0412036 19.9791954,14.4178598 19.5174294,14.13657 C19.056955,13.8552802 18.4660237,14.022552 18.1999431,14.5093473 L17.1291627,16.470866 C16.8630821,16.9576613 17.0213096,17.5816878 17.4824298,17.8629776 C17.94355,18.1449502 18.5331897,17.9776783 18.7992702,17.4902003 L19.8706965,15.5293644" id="Fill-198"></path>
                <path d="M15.8706965,20.529042 C16.136777,20.0415458 15.9791954,19.4181788 15.5174294,19.1368785 C15.0556634,18.8548954 14.4666695,19.0228563 14.1999431,19.5096697 L13.1291627,21.4705787 C12.8630821,21.9580749 13.0213096,22.5828074 13.4824298,22.8634249 C13.94355,23.1447252 14.5338355,22.9774471 14.7992702,22.4906337 L15.8706965,20.529042" id="Fill-199"></path>
            </g>
        </g>
    </g>
</svg>