
<svg width="27px" height="22px" viewBox="0 0 27 22" version="1.1" xmlns="http://www.w3.org/2000/svg" xmlns:xlink="http://www.w3.org/1999/xlink">
    <!-- Generator: Sketch 49.3 (51167) - http://www.bohemiancoding.com/sketch -->
    <desc>Created with Sketch.</desc>
    <defs></defs>
    <g id="Page-1" stroke="none" stroke-width="1" fill="none" fill-rule="evenodd">
        <g id="Sentence-Weather-App-Extended" transform="translate(-290.000000, -725.000000)" fill="#191919">
            <g id="sw-25" transform="translate(290.000000, 725.000000)">
                <path d="M14.4460425,15.3248075 L13.8757656,14.983339 L14.4460425,14.6418705 C14.6437706,14.5236698 14.7112875,14.2628779 14.5973527,14.058372 C14.4834179,13.8538662 14.2314351,13.7844467 14.0355155,13.902022 L13.464033,14.2434905 L13.464033,13.5611789 C13.464033,13.3247776 13.2813756,13.1334051 13.0535059,13.1334051 C12.8256363,13.1334051 12.6417733,13.3247776 12.6417733,13.5611789 L12.6417733,14.2434905 L12.0708936,13.902022 C11.8737683,13.7844467 11.623594,13.8538662 11.5084535,14.058372 C11.3957244,14.2628779 11.4626385,14.5236698 11.6597638,14.6418705 L12.2294378,14.983339 L11.6597638,15.3248075 C11.4626385,15.4423828 11.3957244,15.7031747 11.5084535,15.908306 C11.623594,16.1128118 11.8737683,16.1822313 12.0708936,16.0640306 L12.6417733,15.7219367 L12.6417733,16.4054992 C12.6417733,16.6425258 12.8256363,16.8332729 13.0535059,16.8332729 C13.2813756,16.8332729 13.464033,16.6425258 13.464033,16.4054992 L13.464033,15.7219367 L14.0355155,16.0640306 C14.2314351,16.1822313 14.4834179,16.1128118 14.5973527,15.908306 C14.7112875,15.7044255 14.6437706,15.4430082 14.4460425,15.3248075" id="Fill-172"></path>
                <path d="M19.269173,15.3248075 L18.6976905,14.983339 L19.269173,14.6418705 C19.4656955,14.5236698 19.5338153,14.2628779 19.4192776,14.058372 C19.3065485,13.8538662 19.0545657,13.7844467 18.8568375,13.902022 L18.2859578,14.2434905 L18.2859578,13.5611789 C18.2859578,13.3247776 18.1033004,13.1334051 17.8754308,13.1334051 C17.648164,13.1334051 17.4630953,13.3247776 17.4630953,13.5611789 L17.4630953,14.2434905 L16.8934213,13.902022 C16.6975017,13.7844467 16.4455189,13.8538662 16.3309812,14.058372 C16.2182521,14.2628779 16.285769,14.5236698 16.4816886,14.6418705 L17.0513627,14.983339 L16.4816886,15.3248075 C16.285769,15.4423828 16.2182521,15.7031747 16.3309812,15.908306 C16.444916,16.1128118 16.6975017,16.1822313 16.8934213,16.0640306 L17.4630953,15.7219367 L17.4630953,16.4054992 C17.4630953,16.6425258 17.648164,16.8332729 17.8754308,16.8332729 C18.1033004,16.8332729 18.2859578,16.6425258 18.2859578,16.4054992 L18.2859578,15.7219367 L18.8568375,16.0640306 C19.0545657,16.1822313 19.3065485,16.1128118 19.4192776,15.908306 C19.5338153,15.7044255 19.4656955,15.4430082 19.269173,15.3248075" id="Fill-173"></path>
                <path d="M10.2265456,15.3248075 L9.65626869,14.983339 L10.2265456,14.6418705 C10.4224652,14.5236698 10.4917906,14.2628779 10.377253,14.058372 C10.263921,13.8538662 10.0131438,13.7844467 9.81541572,13.902022 L9.24453602,14.2434905 L9.24453602,13.5611789 C9.24453602,13.3247776 9.0612758,13.1334051 8.83280336,13.1334051 C8.60553657,13.1334051 8.42227635,13.3247776 8.42227635,13.5611789 L8.42227635,14.2434905 L7.85139666,13.902022 C7.65427135,13.7844467 7.40289138,13.8538662 7.28895657,14.058372 C7.1756246,14.2628779 7.24314152,14.5236698 7.43906116,14.6418705 L8.00994086,14.983339 L7.43906116,15.3248075 C7.24314152,15.4423828 7.1756246,15.7031747 7.28895657,15.908306 C7.40289138,16.1128118 7.65427135,16.1822313 7.85139666,16.0640306 L8.42227635,15.7219367 L8.42227635,16.4054992 C8.42227635,16.6425258 8.60553657,16.8332729 8.83280336,16.8332729 C9.0612758,16.8332729 9.24453602,16.6425258 9.24453602,16.4054992 L9.24453602,15.7219367 L9.81541572,16.0640306 C10.0131438,16.1822313 10.263921,16.1128118 10.377253,15.908306 C10.4917906,15.7044255 10.4224652,15.4430082 10.2265456,15.3248075" id="Fill-174"></path>
                <path d="M12.6389174,19.7032346 L12.066832,19.3605153 L12.6389174,19.0190468 C12.8354398,18.9008461 12.9029568,18.6400542 12.789022,18.4349229 C12.6750872,18.2310425 12.4225015,18.161623 12.2265819,18.2798237 L11.6569078,18.6219176 L11.6569078,17.9383552 C11.6569078,17.7025793 11.4718391,17.5112068 11.2439695,17.5112068 C11.0179084,17.5112068 10.8334425,17.7025793 10.8334425,17.9383552 L10.8334425,18.6219176 L10.2631656,18.2798237 C10.0666432,18.161623 9.81345471,18.2316679 9.70012273,18.4349229 C9.58679076,18.6400542 9.65491051,18.9008461 9.85083015,19.0190468 L10.421107,19.3605153 L9.85083015,19.7026092 C9.65491051,19.8201845 9.58679076,20.0809764 9.70012273,20.2861077 C9.81345471,20.4899881 10.0666432,20.5594076 10.2631656,20.4424577 L10.8334425,20.0997384 L10.8334425,20.7833009 C10.8334425,21.0197021 11.0179084,21.2104492 11.2439695,21.2104492 C11.4718391,21.2104492 11.6569078,21.0197021 11.6569078,20.7833009 L11.6569078,20.1003638 L12.2265819,20.4424577 C12.4225015,20.5594076 12.6750872,20.4899881 12.789022,20.2861077 C12.9029568,20.0816018 12.8354398,19.8201845 12.6389174,19.7032346" id="Fill-175"></path>
                <path d="M16.8579854,19.7032346 L16.2871057,19.3605153 L16.8579854,19.0190468 C17.0551107,18.9008461 17.1232305,18.6400542 17.0086928,18.4349229 C16.8959637,18.2310425 16.6439809,18.161623 16.4468556,18.2798237 L15.8765787,18.6219176 L15.8765787,17.9383552 C15.8765787,17.7025793 15.6921128,17.5112068 15.4654489,17.5112068 C15.2369764,17.5112068 15.0531134,17.7025793 15.0531134,17.9383552 L15.0531134,18.6219176 L14.4822337,18.2798237 C14.286314,18.161623 14.0349341,18.2316679 13.9197936,18.4349229 C13.8070644,18.6400542 13.8739785,18.9008461 14.070501,19.0190468 L14.6407779,19.3605153 L14.070501,19.7026092 C13.8739785,19.8201845 13.8070644,20.0809764 13.9197936,20.2861077 C14.0349341,20.4899881 14.286314,20.5594076 14.4822337,20.4424577 L15.0531134,20.0997384 L15.0531134,20.7833009 C15.0531134,21.0197021 15.2369764,21.2104492 15.4654489,21.2104492 C15.6921128,21.2104492 15.8765787,21.0197021 15.8765787,20.7833009 L15.8765787,20.1003638 L16.4468556,20.4424577 C16.6439809,20.5594076 16.8959637,20.4899881 17.0086928,20.2861077 C17.1232305,20.0816018 17.0551107,19.8201845 16.8579854,19.7032346" id="Fill-176"></path>
                <path d="M19.5172134,8.64490755 C20.3919192,8.27717221 21.2678307,8.30656602 21.5174022,8.30656602 C22.7718908,8.30656602 24.2874045,9.44541986 24.2874045,11.3147412 C24.2874045,12.9032578 23.0473839,14.1897061 21.5174022,14.1897061 L21.3877938,14.1897061 C20.919998,14.1897061 20.5396125,14.5849591 20.5396125,15.0715204 C20.5396125,15.5562056 20.919998,15.9495824 21.3877938,15.9495824 L21.5137852,15.9495824 C24.0293935,15.9495824 26.0687662,13.8351042 26.0687662,11.2253089 C26.0687662,11.2253089 26.0910709,6.50541332 21.3033977,6.50541332 C20.2683391,2.08445901 16.2812237,1.86056572 15.1623718,2.17264044 C13.9500814,0.920589157 11.9299992,0 9.8888179,0 C5.83961101,0 2.52284217,3.24770346 2.22323582,7.36909106 C0.894599229,8.16272396 0,9.64930034 0,11.3528906 C0,13.892641 1.98270678,15.9495824 4.43079807,15.9495824 L5.04869848,15.9495824 C5.43270098,15.9495824 5.79379595,15.519307 5.79379595,15.0696442 C5.79379595,14.5837083 5.4128076,14.1897061 4.94621744,14.1897061 L4.81359491,14.1897061 C3.15882747,14.1897061 1.93689173,12.9476612 1.93689173,11.3403826 C1.93689173,10.0276675 2.74106651,8.87568024 3.99736354,8.48292889 C4.1468653,2.27895848 9.39992303,1.96188056 9.98406498,1.96188056 C11.7196116,1.96188056 13.441896,2.8449457 14.5492941,4.15203221 C16.7894091,3.38904391 19.8614291,5.18019021 19.5172134,8.64490755" id="Fill-177"></path>
            </g>
        </g>
    </g>
</svg>