<svg width="25px" height="16px" viewBox="0 0 25 16" version="1.1" xmlns="http://www.w3.org/2000/svg" xmlns:xlink="http://www.w3.org/1999/xlink">
                <defs></defs>
                <g id="Page-1" stroke="none" stroke-width="1" fill="none" fill-rule="evenodd">
                    <g id="Sentence-Weather-App-Copy" transform="translate(-40.000000, -40.000000)" fill="#000000">
                        <path d="M64.2647059,47.2727273 L42.5102941,47.2727273 L48.6080882,41.2414545 C48.7411765,41.1098182 48.8235294,40.928 48.8235294,40.7272727 C48.8235294,40.3250909 48.4941176,40 48.0882353,40 C47.8852941,40 47.7014706,40.0814545 47.5683824,40.2130909 L40.2154412,47.4858182 C40.0823529,47.6181818 40,47.8 40,48 C40,48.2007273 40.0823529,48.3825455 40.2154412,48.5141818 L47.5683824,55.7869091 C47.7014706,55.9192727 47.8852941,56 48.0882353,56 C48.4941176,56 48.8235294,55.6749091 48.8235294,55.2727273 C48.8235294,55.0727273 48.7411765,54.8909091 48.6080882,54.7585455 L42.5102941,48.7272727 L64.2647059,48.7272727 C64.6705882,48.7272727 65,48.4021818 65,48 C65,47.5978182 64.6705882,47.2727273 64.2647059,47.2727273" id="Page-1"></path>
                    </g>
                </g>
            </svg>