
<svg width="20px" height="22px" viewBox="0 0 20 22" version="1.1" xmlns="http://www.w3.org/2000/svg" xmlns:xlink="http://www.w3.org/1999/xlink">
    <!-- Generator: Sketch 49.3 (51167) - http://www.bohemiancoding.com/sketch -->
    <desc>Created with Sketch.</desc>
    <defs></defs>
    <g id="Page-1" stroke="none" stroke-width="1" fill="none" fill-rule="evenodd">
        <g id="Sentence-Weather-App-Extended" transform="translate(-198.000000, -726.000000)" fill="#191919">
            <g id="week-item-copy" transform="translate(128.000000, 692.000000)">
                <path d="M70.3840003,43.7687545 C69.8146576,49.6222165 74.046378,54.8473365 79.8976275,55.4447038 C83.5209182,55.814924 86.8809248,54.2979061 89.0963462,51.7402891 C91.1502572,49.3825321 88.8529744,49.3950694 88.0122352,49.3080455 C79.3533595,48.1708352 77.9388527,39.5591589 79.2899353,36.0715664 C79.7198923,34.394513 78.8319537,34.3871381 78.1276503,34.589948 C78.1276503,34.589948 71.0470042,36.5155356 70.3840003,43.7687545 L70.3840003,43.7687545 Z M80.1483742,52.9873855 C75.6541072,52.5286664 72.383337,48.5122933 72.8413185,44.0187638 C73.1031277,41.4722092 74.5272218,39.2457254 76.5140211,37.9411047 C75.5353713,43.7104928 79.9153272,50.4504183 86.1788339,51.1089973 C84.585117,52.3243816 82.3003714,53.2064202 80.1483742,52.9873855 L80.1483742,52.9873855 Z" id="Fill-342"></path>
            </g>
        </g>
    </g>
</svg>