
<svg width="26px" height="26px" viewBox="0 0 26 26" version="1.1" xmlns="http://www.w3.org/2000/svg" xmlns:xlink="http://www.w3.org/1999/xlink">
    <!-- Generator: Sketch 49.3 (51167) - http://www.bohemiancoding.com/sketch -->
    <desc>Created with Sketch.</desc>
    <defs></defs>
    <g id="Page-1" stroke="none" stroke-width="1" fill="none" fill-rule="evenodd">
        <g id="Sentence-Weather-App-Extended" transform="translate(-134.000000, -724.000000)" fill="#000000">
            <g id="week-item-copy" transform="translate(128.000000, 692.000000)">
                <g id="sw-01" transform="translate(6.000000, 32.000000)">
                    <path d="M14,1.18448915 C14,0.530704076 13.5526389,0 13.0008378,0 C12.4484781,0 12.0005585,0.530704076 12,1.18448915 L12.0005585,3.81484913 C12.0005585,4.46929592 12.4484781,5 13.0008378,5 C13.5526389,5 14,4.46929592 14,3.81484913 L14,1.18448915" id="Fill-343"></path>
                    <path d="M5.91269655,4.32810483 C5.47461472,3.89063172 4.76554799,3.89063172 4.328092,4.32810483 C3.890636,4.76557794 3.890636,5.47529826 4.328092,5.91214551 L6.08730345,7.67142578 C6.52538528,8.10952474 7.23445201,8.10952474 7.671908,7.67142578 C8.109364,7.23395267 8.109364,6.5248582 7.671908,6.08801095 L5.91269655,4.32810483" id="Fill-344"></path>
                    <path d="M1.18448915,12 C0.530704076,12 0,12.4480447 0,13 C0,13.552514 0.531365802,14 1.18382742,14 L3.81551085,14 C4.46929592,14 5,13.552514 5,13 C5,12.4480447 4.46929592,12 3.81551085,12 L1.18448915,12" id="Fill-345"></path>
                    <path d="M4.328092,21.0869599 C3.890636,21.5250846 3.890636,22.2342207 4.328092,22.6723453 C4.76617382,23.1092182 5.47461472,23.1092182 5.91269655,22.6723453 L7.671908,20.912336 C8.109364,20.4742113 8.109364,19.7650752 7.671908,19.3275765 C7.23507784,18.8907036 6.52475945,18.8907036 6.08792928,19.3282024 L4.328092,21.0869599" id="Fill-346"></path>
                    <path d="M12.0000005,24.8148491 C11.9994419,25.4692959 12.4474864,26 12.9994416,26 C13.5519554,25.9993383 14,25.4692959 14,24.8155109 L14,22.1844891 C14,21.5300424 13.5519554,21 12.9994416,21 C12.4474864,21 12.0000005,21.5307041 12.0000005,22.1838274 L12.0000005,24.8148491" id="Fill-347"></path>
                    <path d="M21.0883682,22.6713539 C21.5252411,23.1094443 22.2343771,23.1094443 22.6718759,22.6719798 C23.1093747,22.2338894 23.1093747,21.5248088 22.6718759,21.0873443 L20.9124924,19.3280984 C20.4743678,18.8906339 19.7658576,18.8906339 19.3283588,19.3280984 C18.8902342,19.765563 18.8908601,20.4746435 19.3283588,20.9121081 L21.0883682,22.6713539" id="Fill-348"></path>
                    <path d="M24.8153541,14 C25.4698875,14 26,13.5526389 26,13.0002793 C26,12.4479196 25.4698875,12.0005585 24.8160159,12 L22.1839841,12.0005585 C21.5307743,12 21,12.4479196 21,13.0002793 C21,13.5526389 21.5307743,14 22.1839841,13.9994415 L24.8153541,14" id="Fill-349"></path>
                    <path d="M22.6714194,5.91210809 C23.1095269,5.47526939 23.1095269,4.76556296 22.6714194,4.32809841 C22.2339377,3.89063386 21.5254552,3.89063386 21.0873477,4.32809841 L19.3280331,6.08797009 C18.8905514,6.52543464 18.8905514,7.23388939 19.3286589,7.67197978 C19.7655147,8.10944433 20.4752489,8.10944433 20.9121047,7.67135393 L22.6714194,5.91210809" id="Fill-350"></path>
                    <path d="M13.0006292,6 C9.13383067,6 6,9.13368984 6,13.0003146 C6,16.865681 9.13383067,20 13.0006292,20 C16.8667985,20 20,16.865681 20,13.0003146 C20,9.13368984 16.8667985,6 13.0006292,6 L13.0006292,6 Z M13.0006292,17.765335 C10.3676074,17.765335 8.23413626,15.6319597 8.23413626,13.0003146 C8.23413626,10.3680403 10.3676074,8.23403586 13.0006292,8.23403586 C15.6323926,8.23403586 17.7664929,10.3680403 17.7664929,13.0003146 C17.7664929,15.6319597 15.6323926,17.765335 13.0006292,17.765335 L13.0006292,17.765335 Z" id="Fill-351"></path>
                </g>
            </g>
        </g>
    </g>
</svg>