
<svg width="38px" height="20px" viewBox="0 0 38 20" version="1.1" xmlns="http://www.w3.org/2000/svg" xmlns:xlink="http://www.w3.org/1999/xlink">
    <!-- Generator: Sketch 49.3 (51167) - http://www.bohemiancoding.com/sketch -->
    <desc>Created with Sketch.</desc>
    <defs></defs>
    <g id="Page-1" stroke="none" stroke-width="1" fill="none" fill-rule="evenodd">
        <g id="Sentence-Weather-App-Extended" transform="translate(-182.000000, -727.000000)" fill="#191919">
            <g id="week-item-copy" transform="translate(128.000000, 692.000000)">
                <path d="M87.6738513,40.6937204 C86.7341465,36.8239181 83.1125957,36.6282376 82.0976853,36.900584 C80.996617,35.8038967 79.1624767,35 77.3086224,35 C75.0042646,35 72.9591106,36.1178618 71.6871869,37.841019 C70.2057098,36.6778879 68.0904613,35.8739912 65.9533082,35.8739912 C61.0591035,35.8739912 57.048382,39.6576356 56.6876872,44.4598412 C55.0820843,45.3842129 54,47.1161319 54,49.1021437 C54,52.0599869 56.397087,54.457804 59.3542,54.457804 L80.0043413,54.457804 C83.0432313,54.457804 85.5060319,51.9964637 85.5104128,48.959034 L87.8644208,48.959034 C90.1476042,48.959034 91.9999982,47.1073701 91.9999982,44.8241868 C91.9999982,44.8241868 92.0204425,40.6937204 87.6738513,40.6937204 L87.6738513,40.6937204 Z M80.0087222,52.4068088 L59.8178462,52.4068088 C57.8186917,52.4068088 56.3423256,50.9596488 56.3423256,49.0868105 C56.3423256,47.5578735 57.3134269,46.2158553 58.832872,45.7573202 C59.0124892,38.5288216 65.3626157,38.159365 66.0686721,38.159365 C68.166397,38.159365 70.2480586,39.1881483 71.5871562,40.7112441 C74.2952877,39.8219197 78.0059169,41.9101526 77.591191,45.9464294 C78.64772,45.5185607 79.7057094,45.5514175 80.0087222,45.5514175 C81.5245164,45.5514175 83.3586567,46.8795629 83.3586567,49.0568743 C83.3586567,50.907808 81.8581956,52.4068088 80.0087222,52.4068088 L80.0087222,52.4068088 Z M87.8673414,47.4184146 L85.2738437,47.4184146 C84.8240705,45.7916373 83.5236709,43.4544228 79.7502486,43.4544228 C78.7565126,39.3568133 75.5036882,38.3535853 73.5337398,38.2973636 C75.0174074,36.828299 77.0611011,36.7165859 77.3955104,36.7165859 C78.9719072,36.7165859 80.5344312,37.489086 81.5413099,38.6332332 C83.5747815,37.9651447 86.3632296,39.5335099 86.0507248,42.5658286 C86.8451295,42.2438318 87.6409945,42.2693871 87.8673414,42.2693871 C89.0056474,42.2693871 90.3834431,43.2667739 90.3834431,44.902313 C90.3834431,46.2925212 89.2568195,47.4184146 87.8673414,47.4184146 L87.8673414,47.4184146 Z" id="Fill-333"></path>
            </g>
        </g>
    </g>
</svg>