
<svg width="14px" height="14px" viewBox="0 0 14 14" version="1.1" xmlns="http://www.w3.org/2000/svg" xmlns:xlink="http://www.w3.org/1999/xlink">
    <!-- Generator: Sketch 49.3 (51167) - http://www.bohemiancoding.com/sketch -->
    <defs></defs>
    <g id="Page-1" stroke="none" stroke-width="1" fill="none" fill-rule="evenodd">
        <g id="Sentence-Weather-App-Extended" transform="translate(-198.000000, -401.000000)" fill="#000000">
            <g id="location-icon" transform="translate(198.000000, 401.000000)">
                <path d="M7.99665893,12.1625494 L6.36374172,7.44536106 L1.65414822,6.02083851 L12.5977087,1.40332241 L7.99665893,12.1625494 Z M13.7386877,0 C13.6552169,0 13.5536555,0.0237314951 13.4365425,0.0734094248 L0.373204807,5.61993446 C-0.0971515213,5.81991185 -0.126985189,6.20467849 0.306872504,6.47521754 L5.71597028,8.16774777 L7.48631279,13.6892756 C7.61326457,13.8971635 7.76655884,14 7.91414028,14 C8.07727331,14 8.23278923,13.8746977 8.33879397,13.6272573 L13.9253068,0.568290202 C14.0763795,0.213899876 13.9903696,0 13.7386877,0 Z" id="Fill-1"></path>
                <polygon id="Path-2" points="0.918701172 6.02246094 13 1 7.98339844 13.2531738 6.31420898 7.90283203"></polygon>
            </g>
        </g>
    </g>
</svg>