
<svg width="28px" height="22px" viewBox="0 0 28 22" version="1.1" xmlns="http://www.w3.org/2000/svg" xmlns:xlink="http://www.w3.org/1999/xlink">
    <!-- Generator: Sketch 49.3 (51167) - http://www.bohemiancoding.com/sketch -->
    <desc>Created with Sketch.</desc>
    <defs></defs>
    <g id="Page-1" stroke="none" stroke-width="1" fill="none" fill-rule="evenodd">
        <g id="Sentence-Weather-App-Extended" transform="translate(-210.000000, -725.000000)" fill="#191919">
            <g id="sw-26" transform="translate(210.000000, 725.000000)">
                <path d="M10.8706305,15.5289247 C11.1367518,15.0415791 10.979146,14.4184046 10.5186012,14.1365086 C10.0567646,13.8552951 9.46638879,14.0225216 9.20155939,14.5098672 L8.12932329,16.4708533 C7.86320204,16.9575164 8.02080783,17.5806909 8.48264446,17.8625869 C8.9444811,18.1451654 9.53356503,17.977939 9.80097813,17.4892282 L10.8706305,15.5289247" id="Fill-166"></path>
                <path d="M19.8704101,15.5289247 C20.1371352,15.0415791 19.9789084,14.4184046 19.5171445,14.1365086 C19.0560264,13.8552951 18.4670352,14.0225216 18.2009559,14.5098672 L17.1308261,16.4708533 C16.8621634,16.9575164 17.0210361,17.5806909 17.4815083,17.8625869 C17.9432722,18.1451654 18.5335551,17.977939 18.7996344,17.4892282 L19.8704101,15.5289247" id="Fill-167"></path>
                <path d="M15.869782,19.529018 C16.1371786,19.0415769 15.9795825,18.4182805 15.5177744,18.137012 C15.0566121,17.8550608 14.4662727,18.02232 14.199522,18.509761 L13.1299355,20.4704483 C12.8625389,20.9578893 13.0214268,21.5818685 13.4819432,21.863137 C13.9437513,22.1450882 14.5340907,21.9771463 14.7989038,21.4903879 L15.869782,19.529018" id="Fill-168"></path>
                <path d="M11.8066316,20.3691684 L11.271679,19.9993239 L11.8066316,19.6301555 C11.990981,19.5023665 12.0548813,19.2197431 11.9485694,18.9993239 C11.8416919,18.7789047 11.6053175,18.703854 11.4209681,18.8302907 L10.88545,19.2001352 L10.88545,18.4611224 C10.88545,18.2055443 10.7129759,18 10.4997865,18 C10.2865972,18 10.112992,18.2055443 10.112992,18.4611224 L10.112992,19.2001352 L9.57747395,18.8302907 C9.39538649,18.7025017 9.15788111,18.7789047 9.05156918,18.9993239 C8.94582273,19.2197431 9.00746103,19.5023665 9.19294143,19.6301555 L9.72789403,19.9993239 L9.19294143,20.3691684 C9.00746103,20.4962813 8.94582273,20.7782285 9.05156918,20.9993239 C9.15788111,21.2204192 9.39538649,21.296146 9.57747395,21.1676809 L10.112992,20.7985125 L10.112992,21.5375254 C10.112992,21.7931034 10.2865972,22 10.4997865,22 C10.7129759,22 10.88545,21.7931034 10.88545,21.5375254 L10.88545,20.7978364 L11.4209681,21.1676809 C11.6053175,21.296146 11.8416919,21.2204192 11.9485694,20.9993239 C12.0548813,20.7782285 11.990981,20.4969574 11.8066316,20.3691684" id="Fill-169"></path>
                <path d="M15.8075549,16.3699696 L15.2720478,16 L15.8075549,15.6300304 C15.9907696,15.5021982 16.0546686,15.2208319 15.9489243,14.9996618 C15.8414836,14.7778154 15.606245,14.704092 15.4207684,14.8298952 L14.8852612,15.1998647 L14.8852612,14.4619547 C14.8852612,14.2056138 14.7127906,14 14.4996056,14 C14.2864206,14 14.1145154,14.2056138 14.1145154,14.4619547 L14.1145154,15.1998647 L13.5784428,14.8298952 C13.3940971,14.7027393 13.1588585,14.7784917 13.0531142,14.9996618 C12.9445425,15.2208319 13.007876,15.5021982 13.1933526,15.6300304 L13.7277288,16 L13.1933526,16.3692932 C13.007876,16.4964491 12.9445425,16.7784917 13.0531142,16.9996618 C13.1577275,17.2208319 13.3940971,17.2965844 13.5784428,17.1694285 L14.1145154,16.7994589 L14.1145154,17.5387217 C14.1145154,17.7937098 14.2864206,18 14.4996056,18 C14.7127906,18 14.8852612,17.7937098 14.8852612,17.5387217 L14.8852612,16.7994589 L15.4207684,17.1694285 C15.606245,17.2965844 15.8414836,17.2208319 15.9489243,16.9996618 C16.0546686,16.7791681 15.9907696,16.4971255 15.8075549,16.3699696" id="Fill-170"></path>
                <path d="M20.9640609,8.67223464 C21.9042579,8.30333686 22.8438073,8.33282359 23.113175,8.33282359 C24.4600136,8.33282359 26.0885228,9.47527742 26.0885228,11.3498804 C26.0885228,12.9440458 24.7546346,14.2345606 23.113175,14.2345606 L22.9752536,14.2345606 C22.4721317,14.2345606 22.0635474,14.6304356 22.0635474,15.1179077 C22.0635474,15.6053798 22.4721317,16 22.9752536,16 L23.1092899,16 C25.8107374,16 27.9999976,13.8788378 27.9999976,11.2601655 C27.9999976,11.2601655 28.0252508,6.52597734 22.8839535,6.52597734 C21.7708691,2.09104811 17.4875338,1.86644708 16.2863868,2.17950829 C14.9835795,0.922244442 12.8143923,0 10.6218945,0 C6.2725123,0 2.70857014,3.25734227 2.38869597,7.39238521 C0.960917544,8.18852684 0,9.67980238 0,11.3887778 C0,13.9359291 2.13033607,16 4.75731887,16 L5.42167291,16 C5.83478975,16 6.22071081,15.5671098 6.22071081,15.1172803 C6.22071081,14.6291809 5.81342164,14.2345606 5.31159476,14.2345606 L5.16978819,14.2345606 C3.39299726,14.2345606 2.08112465,12.9879622 2.08112465,11.3756029 C2.08112465,10.0593656 2.94491441,8.90373682 4.29304806,8.50911657 C4.45363266,2.28490766 10.098052,1.96745481 10.7242024,1.96745481 C12.5897034,1.96745481 14.4383689,2.85393875 15.6272129,4.16452966 C18.0340394,3.39912951 21.332499,5.19656511 20.9640609,8.67223464" id="Fill-171"></path>
            </g>
        </g>
    </g>
</svg>