
<svg width="27px" height="25px" viewBox="0 0 27 25" version="1.1" xmlns="http://www.w3.org/2000/svg" xmlns:xlink="http://www.w3.org/1999/xlink">
    <!-- Generator: Sketch 49.3 (51167) - http://www.bohemiancoding.com/sketch -->
    <desc>Created with Sketch.</desc>
    <defs></defs>
    <g id="Page-1" stroke="none" stroke-width="1" fill="none" fill-rule="evenodd">
        <g id="Sentence-Weather-App-Extended" transform="translate(-329.000000, -725.000000)" fill="#191919">
            <g id="sw-27" transform="translate(329.000000, 725.000000)">
                <path d="M12.0605091,20.0739066 C11.8891937,20.3587378 9,25 9,25 C9,25 14.2479805,20.1694962 14.4394147,19.9925263 C14.7661942,19.6902565 14.7424173,19.6082303 14.5137936,19.1612844 C14.3528426,18.8415759 13.8059747,17.7649013 13.6706295,17.5071969 C13.5133364,17.2113859 13.4907788,17.2184905 13.6511203,16.9433475 C13.8096327,16.6675586 17,11 17,11 C17,11 11.8727328,15.6645137 11.4508459,16.0507474 C10.8484987,16.6023252 10.8576437,16.706957 11.1697912,17.4271083 C11.3295229,17.7939657 11.9721079,19.256874 12.0940405,19.5010149 C12.2238988,19.7600111 12.2580399,19.7483853 12.0605091,20.0739066" id="Fill-164"></path>
                <path d="M20.2142529,8.67223464 C21.1208504,8.30333686 22.0268235,8.33282359 22.286565,8.33282359 C23.586521,8.33282359 25.155584,9.47527742 25.155584,11.3505078 C25.155584,12.9440458 23.8706132,14.2345606 22.286565,14.2345606 L17.7691868,14.2345606 C17.2840447,14.2345606 16.8913107,14.6304356 16.8913107,15.1191625 C16.8913107,15.6053798 17.2840447,16 17.7691868,16 L22.2828187,16 C24.8877257,16 26.999998,13.8788378 26.999998,11.2601655 C26.999998,11.2601655 27.0231,6.52597734 22.065535,6.52597734 C20.9941016,2.09104811 16.8619649,1.86644708 15.7037428,2.17950829 C14.4474933,0.922244442 12.3558255,0 10.2429287,0 C6.04772983,0 2.6123995,3.25734227 2.30270778,7.39238521 C0.927202023,8.18852684 0,9.67980238 0,11.3887778 C0,13.9359291 2.05358078,16 4.58793297,16 L8.95233845,16 C9.35131629,16 9.72469462,15.5683645 9.72469462,15.1172803 C9.72469462,14.6291809 9.3307118,14.2345606 8.84619411,14.2345606 L4.9844133,14.2345606 C3.27236754,14.2345606 2.00737677,12.9879622 2.00737677,11.3762302 C2.00737677,10.0593656 2.83904889,8.90373682 4.14025361,8.50974395 C4.29509947,2.28490766 9.73655781,1.96745481 10.3415805,1.96745481 C12.1391661,1.96745481 13.9217667,2.85393875 15.0693743,4.16515704 C17.3889403,3.39912951 20.570773,5.19656511 20.2142529,8.67223464" id="Fill-165"></path>
            </g>
        </g>
    </g>
</svg>