
<svg width="27px" height="23px" viewBox="0 0 27 23" version="1.1" xmlns="http://www.w3.org/2000/svg" xmlns:xlink="http://www.w3.org/1999/xlink">
    <!-- Generator: Sketch 49.3 (51167) - http://www.bohemiancoding.com/sketch -->
    <desc>Created with Sketch.</desc>
    <defs></defs>
    <g id="Page-1" stroke="none" stroke-width="1" fill="none" fill-rule="evenodd">
        <g id="Sentence-Weather-App-Extended" transform="translate(-300.000000, -725.000000)" fill="#191919">
            <g id="sw-09" transform="translate(300.000000, 725.000000)">
                <path d="M20.076153,19 C20.586245,19 21,18.552139 21,18 C21,17.4471925 20.586245,17 20.076153,17 L2.92384698,17 C2.41190236,17 2,17.4471925 2,18 C2,18.552139 2.41190236,19 2.92384698,19 L20.076153,19" id="Fill-322"></path>
                <path d="M24.0762731,23 C24.5862988,23 25,22.5524382 25,22 C24.9987651,21.4475618 24.5862988,21 24.0762731,21 L6.92496181,21 C6.41493614,21 6,21.4475618 6,22 C6,22.5524382 6.41493614,23 6.92496181,22.999332 L24.0762731,23" id="Fill-323"></path>
                <path d="M22.2826721,15 C24.8893361,15 26.9999977,13.0112835 26.9999977,10.5571227 C26.9999977,10.5571227 27.0243299,6.11894687 22.0655541,6.11894687 C20.9936899,1.96050776 16.8634564,1.75011754 15.7048697,2.04278326 C14.4483304,0.865655853 12.3563859,0 10.2419808,0 C6.04873319,0 2.6116552,3.05477198 2.30219964,6.93053597 C0.926494976,7.67748002 0,9.07498825 0,10.6775976 C0,13.0653503 2.0532626,15 4.58817781,15 L22.2826721,15 L22.2826721,15 Z M4.98560361,13.3456747 C3.27049607,13.3456747 2.00709383,12.1773625 2.00709383,10.6652562 C2.00709383,9.43053597 2.83937955,8.34802539 4.13959203,7.9783733 C4.29556762,2.14327692 9.73661993,1.84532205 10.3411813,1.84532205 C12.1392678,1.84532205 13.9223807,2.67571697 15.0709849,3.9051481 C17.3900299,3.18700047 20.5706841,4.87247297 20.2150597,8.13058298 C21.120342,7.78502586 22.0281199,7.81205924 22.2864155,7.81205924 C23.586628,7.81205924 25.1576141,8.88399154 25.1576141,10.6411613 C25.1576141,12.1350494 23.8717514,13.3456747 22.2864155,13.3456747 L4.98560361,13.3456747 L4.98560361,13.3456747 Z" id="Fill-324"></path>
            </g>
        </g>
    </g>
</svg>