
<svg width="295px" height="209px" viewBox="0 0 295 209" version="1.1" xmlns="http://www.w3.org/2000/svg" xmlns:xlink="http://www.w3.org/1999/xlink">
    <!-- Generator: Sketch 49.3 (51167) - http://www.bohemiancoding.com/sketch -->
    <desc>Created with Sketch.</desc>
    <defs></defs>
    <g id="Page-1" stroke="none" stroke-width="1" fill="none" fill-rule="evenodd">
        <g id="Sentence-Weather-App-Dark" transform="translate(-40.000000, -40.000000)">
            <path d="M275.946282,42.9842768 C268.112181,52.7131617 263.423107,65.0812837 263.423107,78.5445974 C263.423107,109.881476 288.826666,135.285035 320.163545,135.285035 C324.2077,135.285035 328.153035,134.861939 331.957702,134.057597 C321.557341,146.973427 305.614003,155.237716 287.740438,155.237716 C256.403559,155.237716 231,129.834157 231,98.4972788 C231,71.2045551 250.269785,48.4125308 275.946281,42.9842791 Z" id="Combined-Shape" stroke="#FFFFFF" stroke-width="6" stroke-linejoin="round"></path>
            <path d="M212.868968,214.332579 C211.248465,194.575035 194.658428,179 174.498383,179 C156.609843,179 141.178308,190.620026 136.717548,207.000063 L136.000047,207.000063 C124.420271,207.000063 115,216.415084 115,228.000109 C115,239.585135 124.420271,249.000156 136.000047,249.000156 L209.498461,249.000156 C219.147982,249.000156 226.9985,241.142639 226.9985,231.500117 C226.9985,222.995098 220.911986,215.907582 212.868968,214.332579 L212.868968,214.332579 Z M209.498461,242.000141 L136.000047,242.000141 C128.28253,242.000141 122.000016,235.717627 122.000016,228.000109 C122.000016,220.282592 128.28253,214.000078 136.000047,214.000078 L139.500055,214.000078 C141.185308,214.000078 142.630812,212.810075 142.940562,211.147572 C145.679318,196.570039 158.951348,186.000016 174.498383,186.000016 C191.868922,186.000016 205.998453,200.122547 205.998453,217.500086 C205.998453,219.44259 207.568207,221.000094 209.498461,221.000094 C215.289224,221.000094 219.998484,225.707604 219.998484,231.500117 C219.998484,237.29263 215.289224,242.000141 209.498461,242.000141 L209.498461,242.000141 Z" id="146-copy-2" fill="#E7E7E7" opacity="0.102355072"></path>
            <path d="M106.411975,113.976 C105.312333,100.568915 94.0546571,90 80.3744434,90 C68.2356287,90 57.7640901,97.8851232 54.7371053,109.000297 L54.2502227,109.000297 C46.3924124,109.000297 40,115.389147 40,123.25052 C40,131.111892 46.3924124,137.500742 54.2502227,137.500742 L104.124814,137.500742 C110.672792,137.500742 116,132.168784 116,125.625557 C116,119.854216 111.86981,115.044766 106.411975,113.976 L106.411975,113.976 Z M104.124814,132.750668 L54.2502227,132.750668 C49.0132658,132.750668 44.7500742,128.487476 44.7500742,123.25052 C44.7500742,118.013563 49.0132658,113.750371 54.2502227,113.750371 L56.6252598,113.750371 C57.7688401,113.750371 58.7497305,112.942858 58.9599212,111.814716 C60.8183878,101.922686 69.8245285,94.7500742 80.3744434,94.7500742 C92.1617525,94.7500742 101.749777,104.333349 101.749777,116.125408 C101.749777,117.443554 102.814981,118.500445 104.124814,118.500445 C108.054313,118.500445 111.249926,121.69487 111.249926,125.625557 C111.249926,129.556243 108.054313,132.750668 104.124814,132.750668 L104.124814,132.750668 Z" id="146-copy-3" fill="#F0F0F0" opacity="0.102355072" transform="translate(78.000000, 113.750371) scale(-1, 1) translate(-78.000000, -113.750371) "></path>
        </g>
    </g>
</svg>