
<svg width="295px" height="211px" viewBox="0 0 295 211" version="1.1" xmlns="http://www.w3.org/2000/svg" xmlns:xlink="http://www.w3.org/1999/xlink">
    <!-- Generator: Sketch 49.3 (51167) - http://www.bohemiancoding.com/sketch -->
    <desc>Created with Sketch.</desc>
    <defs></defs>
    <g id="Page-1" stroke="none" stroke-width="1" fill="none" fill-rule="evenodd">
        <g id="Sentence-Weather-App" transform="translate(-40.000000, -40.000000)">
            <g id="weather-snow" transform="translate(40.000000, 40.000000)">
                <path d="M278.976377,109.064605 C277.138842,86.6609701 258.326932,69 235.468875,69 C215.182571,69 197.68432,82.1762743 192.626139,100.750059 L191.812544,100.750059 C178.68191,100.750059 168,111.426016 168,124.562603 C168,137.699189 178.68191,148.375146 191.812544,148.375146 L275.154463,148.375146 C286.096327,148.375146 294.99825,139.465286 294.99825,128.53136 C294.99825,118.88728 288.096581,110.850546 278.976377,109.064605 L278.976377,109.064605 Z M275.154463,140.437632 L191.812544,140.437632 C183.061434,140.437632 175.937515,133.313712 175.937515,124.562603 C175.937515,115.811493 183.061434,108.687573 191.812544,108.687573 L195.781301,108.687573 C197.692258,108.687573 199.331355,107.338196 199.684574,105.453036 C202.788142,88.9231618 217.83767,76.9375146 235.468875,76.9375146 C255.163833,76.9375146 271.185706,92.9514505 271.185706,112.656331 C271.185706,114.858991 272.965694,116.625088 275.154463,116.625088 C281.720772,116.625088 287.060735,121.963066 287.060735,128.53136 C287.060735,135.099653 281.720772,140.437632 275.154463,140.437632 Z M221.578695,172.870022 C222.938524,173.668704 223.402856,175.4351 222.619296,176.81272 C221.835736,178.194566 220.102784,178.663633 218.755392,177.864951 L214.825155,175.553423 L214.825155,180.172253 C214.825155,181.773842 213.568972,183.06272 212.001852,183.06272 C210.434732,183.06272 209.170257,181.773842 209.170257,180.172253 L209.170257,175.553423 L205.244166,177.864951 C203.888483,178.663633 202.167968,178.194566 201.376116,176.81272 C200.600848,175.426648 201.061034,173.664478 202.416717,172.870022 L206.334516,170.56272 L202.416717,168.255417 C201.061034,167.456736 200.600848,165.694566 201.376116,164.31272 C202.167968,162.930874 203.888483,162.461807 205.244166,163.256263 L209.170257,165.563565 L209.170257,160.953186 C209.170257,159.355823 210.434732,158.06272 212.001852,158.06272 C213.568972,158.06272 214.825155,159.355823 214.825155,160.953186 L214.825155,165.563565 L218.755392,163.256263 C220.102784,162.461807 221.835736,162.930874 222.619296,164.31272 C223.402856,165.694566 222.938524,167.456736 221.578695,168.255417 L217.65675,170.56272 L221.578695,172.870022 Z M263.58467,172.870022 C264.936377,173.668704 265.404914,175.4351 264.617109,176.81272 C263.841743,178.194566 262.108573,178.663633 260.748574,177.864951 L256.82199,175.553423 L256.82199,180.172253 C256.82199,181.773842 255.565649,183.06272 253.998332,183.06272 C252.435162,183.06272 251.162236,181.773842 251.162236,180.172253 L251.162236,175.553423 L247.243944,177.864951 C245.896384,178.663633 244.159068,178.194566 243.375409,176.81272 C242.600044,175.426648 243.064434,173.664478 244.411994,172.870022 L248.330286,170.56272 L244.411994,168.255417 C243.064434,167.456736 242.600044,165.694566 243.375409,164.31272 C244.163214,162.930874 245.896384,162.461807 247.243944,163.256263 L251.162236,165.563565 L251.162236,160.953186 C251.162236,159.355823 252.435162,158.06272 253.998332,158.06272 C255.565649,158.06272 256.82199,159.355823 256.82199,160.953186 L256.82199,165.563565 L260.748574,163.256263 C262.108573,162.461807 263.841743,162.930874 264.617109,164.31272 C265.404914,165.694566 264.936377,167.456736 263.58467,168.255417 L259.65394,170.56272 L263.58467,172.870022 Z M200.586779,199.876752 C201.938232,200.667115 202.402534,202.43381 201.619024,203.81589 C200.835513,205.193743 199.098524,205.662889 197.751217,204.872525 L193.833664,202.560606 L193.833664,207.175991 C193.833664,208.773624 192.560978,210.06272 190.993957,210.06272 C189.439372,210.06272 188.170831,208.773624 188.170831,207.175991 L188.170831,202.55638 L184.249133,204.872525 C182.89768,205.662889 181.156546,205.193743 180.377181,203.81589 C179.597816,202.429584 180.066264,200.667115 181.41357,199.872525 L185.335269,197.560606 L181.41357,195.252914 C180.066264,194.454098 179.597816,192.691629 180.377181,191.305323 C181.156546,189.931697 182.89768,189.458324 184.249133,190.257141 L188.170831,192.56906 L188.170831,187.949448 C188.170831,186.356042 189.439372,185.06272 190.993957,185.06272 C192.560978,185.06272 193.833664,186.356042 193.833664,187.949448 L193.833664,192.56906 L197.751217,190.257141 C199.098524,189.458324 200.835513,189.92747 201.619024,191.305323 C202.402534,192.691629 201.938232,194.454098 200.586779,195.252914 L196.652644,197.560606 L200.586779,199.876752 Z M242.580989,199.876752 C243.93654,200.667115 244.404972,202.43381 243.617343,203.81589 C242.84215,205.193743 241.109366,205.662889 239.753814,204.872525 L235.83225,202.560606 L235.83225,207.175991 C235.83225,208.773624 234.563752,210.06272 233.005076,210.06272 C231.433963,210.06272 230.169611,208.773624 230.169611,207.175991 L230.169611,202.55638 L226.243901,204.872525 C224.89664,205.662889 223.168001,205.193743 222.376227,203.81589 C221.601034,202.429584 222.061175,200.667115 223.412581,199.872525 L227.334145,197.560606 L223.412581,195.252914 C222.061175,194.454098 221.601034,192.691629 222.376227,191.305323 C223.168001,189.931697 224.89664,189.458324 226.243901,190.257141 L230.169611,192.56906 L230.169611,187.949448 C230.169611,186.356042 231.433963,185.06272 233.005076,185.06272 C234.563752,185.06272 235.83225,186.356042 235.83225,187.949448 L235.83225,192.56906 L239.753814,190.257141 C241.109366,189.458324 242.84215,189.92747 243.617343,191.305323 C244.404972,192.691629 243.93654,194.454098 242.580989,195.252914 L238.655279,197.560606 L242.580989,199.876752 Z" id="147" fill="#000000"></path>
                <path d="M72.3779229,78.1298214 C71.1794972,63.5183462 58.9105172,52 44.0026711,52 C30.7721032,52 19.3598811,60.5934628 16.0609749,72.7071393 L15.5303545,72.7071393 C6.96665819,72.7071393 0,79.6699149 0,88.2374938 C0,96.8050727 6.96665819,103.767848 15.5303545,103.767848 L69.885301,103.767848 C77.0214989,103.767848 82.8272631,97.9569073 82.8272631,90.8258862 C82.8272631,84.5360927 78.3260487,79.294598 72.3779229,78.1298214 L72.3779229,78.1298214 Z M69.885301,98.5910635 L15.5303545,98.5910635 C9.82294922,98.5910635 5.17678483,93.9448991 5.17678483,88.2374938 C5.17678483,82.5300885 9.82294922,77.8839242 15.5303545,77.8839242 L18.1187469,77.8839242 C19.3650579,77.8839242 20.4340639,77.0038707 20.6644308,75.7743843 C22.6885537,64.9937299 32.5037378,57.1767848 44.0026711,57.1767848 C56.8475684,57.1767848 67.2969086,67.6209482 67.2969086,80.4723166 C67.2969086,81.9088744 68.4578026,83.060709 69.885301,83.060709 C74.1677963,83.060709 77.6504783,86.5420968 77.6504783,90.8258862 C77.6504783,95.1096757 74.1677963,98.5910635 69.885301,98.5910635 Z M34.9436051,119.743214 C35.8304748,120.264108 36.1333083,121.416138 35.6222767,122.314611 C35.1112451,123.21584 33.981027,123.521761 33.1022689,123.000868 L30.5389991,121.493307 L30.5389991,124.505672 C30.5389991,125.550216 29.7197262,126.390812 28.6976629,126.390812 C27.6755996,126.390812 26.850919,125.550216 26.850919,124.505672 L26.850919,121.493307 L24.290353,123.000868 C23.4061872,123.521761 22.2840807,123.21584 21.7676413,122.314611 C21.2620174,121.410626 21.5621471,120.261352 22.446313,119.743214 L25.0014711,118.23841 L22.446313,116.733605 C21.5621471,116.212711 21.2620174,115.063438 21.7676413,114.162209 C22.2840807,113.26098 23.4061872,112.955058 24.290353,113.473196 L26.850919,114.978 L26.850919,111.971147 C26.850919,110.92936 27.6755996,110.086008 28.6976629,110.086008 C29.7197262,110.086008 30.5389991,110.92936 30.5389991,111.971147 L30.5389991,114.978 L33.1022689,113.473196 C33.981027,112.955058 35.1112451,113.26098 35.6222767,114.162209 C36.1333083,115.063438 35.8304748,116.212711 34.9436051,116.733605 L32.385743,118.23841 L34.9436051,119.743214 Z M62.3395727,119.743214 C63.2211453,120.264108 63.5267211,121.416138 63.0129211,122.314611 C62.5072338,123.21584 61.3768738,123.521761 60.4898928,123.000868 L57.9290055,121.493307 L57.9290055,124.505672 C57.9290055,125.550216 57.1096297,126.390812 56.0874382,126.390812 C55.0679509,126.390812 54.2377583,125.550216 54.2377583,124.505672 L54.2377583,121.493307 L51.6822794,123.000868 C50.803411,123.521761 49.6703468,123.21584 49.159251,122.314611 C48.6535637,121.410626 48.9564353,120.261352 49.8353037,119.743214 L52.3907825,118.23841 L49.8353037,116.733605 C48.9564353,116.212711 48.6535637,115.063438 49.159251,114.162209 C49.673051,113.26098 50.803411,112.955058 51.6822794,113.473196 L54.2377583,114.978 L54.2377583,111.971147 C54.2377583,110.92936 55.0679509,110.086008 56.0874382,110.086008 C57.1096297,110.086008 57.9290055,110.92936 57.9290055,111.971147 L57.9290055,114.978 L60.4898928,113.473196 C61.3768738,112.955058 62.5072338,113.26098 63.0129211,114.162209 C63.5267211,115.063438 63.2211453,116.212711 62.3395727,116.733605 L59.7759812,118.23841 L62.3395727,119.743214 Z M21.2528421,137.356792 C22.1342486,137.87226 22.4370631,139.024485 21.9260636,139.925866 C21.4150641,140.824491 20.2822134,141.130465 19.4035107,140.614996 L16.8485133,139.107181 L16.8485133,142.117298 C16.8485133,143.159262 16.0184771,144 14.9964782,144 C13.9825904,144 13.1552579,143.159262 13.1552579,142.117298 L13.1552579,139.104424 L10.5975568,140.614996 C9.71615035,141.130465 8.58059598,140.824491 8.07230021,139.925866 C7.56400444,139.021728 7.86952264,137.87226 8.74822543,137.354035 L11.3059265,135.84622 L8.74822543,134.341161 C7.86952264,133.820179 7.56400444,132.670711 8.07230021,131.766573 C8.58059598,130.870705 9.71615035,130.561975 10.5975568,131.082957 L13.1552579,132.590772 L13.1552579,129.577898 C13.1552579,128.53869 13.9825904,127.695196 14.9964782,127.695196 C16.0184771,127.695196 16.8485133,128.53869 16.8485133,129.577898 L16.8485133,132.590772 L19.4035107,131.082957 C20.2822134,130.561975 21.4150641,130.867948 21.9260636,131.766573 C22.4370631,132.670711 22.1342486,133.820179 21.2528421,134.341161 L18.6870299,135.84622 L21.2528421,137.356792 Z M48.6411361,137.356792 C49.525216,137.87226 49.8307237,139.024485 49.3170381,139.925866 C48.8114634,140.824491 47.6813551,141.130465 46.7972751,140.614996 L44.2396616,139.107181 L44.2396616,142.117298 C44.2396616,143.159262 43.4123575,144 42.3958007,144 C41.3711332,144 40.5465326,143.159262 40.5465326,142.117298 L40.5465326,139.104424 L37.9862155,140.614996 C37.1075428,141.130465 35.9801381,140.824491 35.4637489,139.925866 C34.9581741,139.021728 35.2582747,137.87226 36.139651,137.354035 L38.6972645,135.84622 L36.139651,134.341161 C35.2582747,133.820179 34.9581741,132.670711 35.4637489,131.766573 C35.9801381,130.870705 37.1075428,130.561975 37.9862155,131.082957 L40.5465326,132.590772 L40.5465326,129.577898 C40.5465326,128.53869 41.3711332,127.695196 42.3958007,127.695196 C43.4123575,127.695196 44.2396616,128.53869 44.2396616,129.577898 L44.2396616,132.590772 L46.7972751,131.082957 C47.6813551,130.561975 48.8114634,130.867948 49.3170381,131.766573 C49.8307237,132.670711 49.525216,133.820179 48.6411361,134.341161 L46.0808189,135.84622 L48.6411361,137.356792 Z" id="147-copy-3" fill="#E1E1E1"></path>
                <path d="M179.170492,11.6448117 C178.636411,5.13317605 173.168713,0 166.524999,0 C160.628768,0 155.542886,3.82969539 154.072722,9.22818165 L153.836249,9.22818165 C150.01982,9.22818165 146.915113,12.3311577 146.915113,16.1493179 C146.915113,19.9674781 150.01982,23.0704541 153.836249,23.0704541 L178.05965,23.0704541 C181.239912,23.0704541 183.827263,20.4807957 183.827263,17.3028406 C183.827263,14.4997804 181.821287,12.1638969 179.170492,11.6448117 L179.170492,11.6448117 Z M178.05965,20.7634087 L153.836249,20.7634087 C151.292732,20.7634087 149.222159,18.6928355 149.222159,16.1493179 C149.222159,13.6058003 151.292732,11.5352271 153.836249,11.5352271 L154.989772,11.5352271 C155.545193,11.5352271 156.021598,11.1430293 156.124262,10.5951061 C157.026317,5.79068399 161.400475,2.30704541 166.524999,2.30704541 C172.249356,2.30704541 176.906127,6.96150954 176.906127,12.6887498 C176.906127,13.3289549 177.423482,13.8422725 178.05965,13.8422725 C179.968153,13.8422725 181.520218,15.3937605 181.520218,17.3028406 C181.520218,19.2119207 179.968153,20.7634087 178.05965,20.7634087 Z M162.487807,30.1899106 C162.883042,30.4220481 163.018001,30.9354527 162.790258,31.3358591 C162.562516,31.7374938 162.058832,31.8738285 161.667211,31.641691 L160.524885,30.9698434 L160.524885,32.3123104 C160.524885,32.7778136 160.159774,33.1524269 159.704289,33.1524269 C159.248804,33.1524269 158.881284,32.7778136 158.881284,32.3123104 L158.881284,30.9698434 L157.740162,31.641691 C157.346131,31.8738285 156.846062,31.7374938 156.61591,31.3358591 C156.390578,30.9329962 156.524331,30.4208199 156.918361,30.1899106 L158.057073,29.5192913 L156.918361,28.8486719 C156.524331,28.6165344 156.390578,28.1043581 156.61591,27.7027234 C156.846062,27.3010887 157.346131,27.164754 157.740162,27.3956633 L158.881284,28.0662826 L158.881284,26.7262721 C158.881284,26.2619972 159.248804,25.8861556 159.704289,25.8861556 C160.159774,25.8861556 160.524885,26.2619972 160.524885,26.7262721 L160.524885,28.0662826 L161.667211,27.3956633 C162.058832,27.164754 162.562516,27.3010887 162.790258,27.7027234 C163.018001,28.1043581 162.883042,28.6165344 162.487807,28.8486719 L161.34789,29.5192913 L162.487807,30.1899106 Z M174.696879,30.1899106 C175.089754,30.4220481 175.225935,30.9354527 174.996959,31.3358591 C174.771598,31.7374938 174.26785,31.8738285 173.872565,31.641691 L172.7313,30.9698434 L172.7313,32.3123104 C172.7313,32.7778136 172.366144,33.1524269 171.910602,33.1524269 C171.456265,33.1524269 171.086288,32.7778136 171.086288,32.3123104 L171.086288,30.9698434 L169.947433,31.641691 C169.555764,31.8738285 169.050811,31.7374938 168.82304,31.3358591 C168.59768,30.9329962 168.732655,30.4208199 169.124325,30.1899106 L170.263179,29.5192913 L169.124325,28.8486719 C168.732655,28.6165344 168.59768,28.1043581 168.82304,27.7027234 C169.052016,27.3010887 169.555764,27.164754 169.947433,27.3956633 L171.086288,28.0662826 L171.086288,26.7262721 C171.086288,26.2619972 171.456265,25.8861556 171.910602,25.8861556 C172.366144,25.8861556 172.7313,26.2619972 172.7313,26.7262721 L172.7313,28.0662826 L173.872565,27.3956633 C174.26785,27.164754 174.771598,27.3010887 174.996959,27.7027234 C175.225935,28.1043581 175.089754,28.6165344 174.696879,28.8486719 L173.554409,29.5192913 L174.696879,30.1899106 Z M156.386489,38.0394397 C156.779289,38.2691596 156.914239,38.7826509 156.686511,39.1843535 C156.458783,39.5848276 155.953926,39.7211854 155.56233,39.4914656 L154.42369,38.8195044 L154.42369,40.1609699 C154.42369,40.6253233 154.053782,41 153.598326,41 C153.146485,41 152.777783,40.6253233 152.777783,40.1609699 L152.777783,38.8182759 L151.637937,39.4914656 C151.245137,39.7211854 150.739074,39.5848276 150.512551,39.1843535 C150.286028,38.7814225 150.422183,38.2691596 150.813779,38.0382113 L151.953624,37.3662501 L150.813779,36.6955174 C150.422183,36.4633406 150.286028,35.9510777 150.512551,35.5481467 C150.739074,35.148901 151.245137,35.0113148 151.637937,35.2434915 L152.777783,35.9154527 L152.777783,34.5727588 C152.777783,34.1096338 153.146485,33.7337286 153.598326,33.7337286 C154.053782,33.7337286 154.42369,34.1096338 154.42369,34.5727588 L154.42369,35.9154527 L155.56233,35.2434915 C155.953926,35.0113148 156.458783,35.1476726 156.686511,35.5481467 C156.914239,35.9510777 156.779289,36.4633406 156.386489,36.6955174 L155.243029,37.3662501 L156.386489,38.0394397 Z M168.592141,38.0394397 C168.986133,38.2691596 169.122284,38.7826509 168.893358,39.1843535 C168.668048,39.5848276 168.164413,39.7211854 167.770421,39.4914656 L166.630615,38.8195044 L166.630615,40.1609699 C166.630615,40.6253233 166.261925,41 165.808894,41 C165.352249,41 164.984764,40.6253233 164.984764,40.1609699 L164.984764,38.8182759 L163.843753,39.4914656 C163.45217,39.7211854 162.94974,39.5848276 162.71961,39.1843535 C162.4943,38.7814225 162.62804,38.2691596 163.020827,38.0382113 L164.160633,37.3662501 L163.020827,36.6955174 C162.62804,36.4633406 162.4943,35.9510777 162.71961,35.5481467 C162.94974,35.148901 163.45217,35.0113148 163.843753,35.2434915 L164.984764,35.9154527 L164.984764,34.5727588 C164.984764,34.1096338 165.352249,33.7337286 165.808894,33.7337286 C166.261925,33.7337286 166.630615,34.1096338 166.630615,34.5727588 L166.630615,35.9154527 L167.770421,35.2434915 C168.164413,35.0113148 168.668048,35.1476726 168.893358,35.5481467 C169.122284,35.9510777 168.986133,36.4633406 168.592141,36.6955174 L167.45113,37.3662501 L168.592141,38.0394397 Z" id="147-copy-4" fill="#000000" opacity="0.0230978261"></path>
            </g>
        </g>
    </g>
</svg>