
<svg width="295px" height="210px" viewBox="0 0 295 210" version="1.1" xmlns="http://www.w3.org/2000/svg" xmlns:xlink="http://www.w3.org/1999/xlink">
    <!-- Generator: Sketch 49.3 (51167) - http://www.bohemiancoding.com/sketch -->
    <desc>Created with Sketch.</desc>
    <defs></defs>
    <g id="Page-1" stroke="none" stroke-width="1" fill="none" fill-rule="evenodd">
        <g id="Sentence-Weather-App" transform="translate(-40.000000, -40.000000)">
            <g id="weather-thunderstorm" transform="translate(40.000000, 40.000000)">
                <path d="M278.983591,135.031897 C277.157681,112.646552 258.323019,95 235.479294,95 C215.175965,95 197.671042,108.165517 192.610095,126.724138 L191.816221,126.724138 C178.677606,126.724138 168,137.391379 168,150.517241 C168,163.643103 178.677606,174.310345 191.816221,174.310345 L275.172996,174.310345 C286.108611,174.310345 295,165.407759 295,154.482759 C295,144.846552 288.113143,136.816379 278.983591,135.031897 L278.983591,135.031897 Z M275.172996,166.37931 L191.816221,166.37931 C183.06376,166.37931 175.93874,159.261207 175.93874,150.517241 C175.93874,141.773276 183.06376,134.655172 191.816221,134.655172 L195.785591,134.655172 C197.690889,134.655172 199.318331,133.287069 199.675574,131.423276 C202.79153,114.906897 217.835443,102.931034 235.479294,102.931034 C255.16737,102.931034 271.203626,118.931897 271.203626,138.62069 C271.203626,140.801724 272.969995,142.586207 275.172996,142.586207 C281.722457,142.586207 287.081106,147.919828 287.081106,154.482759 C287.081106,161.04569 281.722457,166.37931 275.172996,166.37931 L275.172996,166.37931 Z" id="149" fill="#000000"></path>
                <path d="M250.18581,185.037069 C251.733865,183.490517 251.733865,180.992241 250.18581,179.44569 C248.637756,177.87931 246.117206,177.87931 244.569151,179.44569 L233.216753,190.787069 L245.124863,198.718103 L240.599781,203.238793 C239.051727,204.785345 239.051727,207.283621 240.599781,208.830172 C241.373808,209.603448 242.385998,210 243.418034,210 C244.430223,210 245.442413,209.603448 246.21644,208.830172 L257.568839,197.488793 L245.660728,189.557759 L250.18581,185.037069 L250.18581,185.037069 Z" id="149-path" fill="#FFC800"></path>
                <path d="M218.430849,185.037069 C219.978903,183.490517 219.978903,180.992241 218.430849,179.44569 C216.882794,177.87931 214.362244,177.87931 212.81419,179.44569 L201.461791,190.787069 L213.369902,198.718103 L208.84482,203.238793 C207.296765,204.785345 207.296765,207.283621 208.84482,208.830172 C209.618847,209.603448 210.631036,210 211.663072,210 C212.675262,210 213.687451,209.603448 214.461478,208.830172 L225.833724,197.488793 L213.925613,189.557759 L218.430849,185.037069 L218.430849,185.037069 Z" id="149-path" fill="#FFC800"></path>
                <path d="M53.7119862,114.900297 C54.7237068,113.888576 54.7237068,112.254258 53.7119862,111.242538 C52.7002657,110.217847 51.052977,110.217847 50.0412564,111.242538 L42.6219722,118.661822 L50.4044382,123.850133 L47.4471011,126.80747 C46.4353805,127.81919 46.4353805,129.453508 47.4471011,130.465229 C47.9529614,130.971089 48.614471,131.230505 49.2889514,131.230505 C49.950461,131.230505 50.6119706,130.971089 51.1178309,130.465229 L58.5371152,123.045945 L50.7546492,117.857634 L53.7119862,114.900297 L53.7119862,114.900297 Z M32.9587436,114.900297 C33.9704641,113.888576 33.9704641,112.254258 32.9587436,111.242538 C31.947023,110.217847 30.2997343,110.217847 29.2880138,111.242538 L21.8687295,118.661822 L29.6511955,123.850133 L26.6938584,126.80747 C25.6821378,127.81919 25.6821378,129.453508 26.6938584,130.465229 C27.1997187,130.971089 27.8612283,131.230505 28.5357087,131.230505 C29.1972183,131.230505 29.8587279,130.971089 30.3645882,130.465229 L37.7968433,123.045945 L30.0143772,117.857634 L32.9587436,114.900297 L32.9587436,114.900297 Z M72.5325832,82.1879981 C71.3392718,67.5439912 59.0300047,56 44.1006407,56 C30.8315362,56 19.3913111,64.6125957 16.0837631,76.7532427 L15.564932,76.7532427 C6.97827786,76.7532427 0,83.7315206 0,92.3181747 C0,100.904829 6.97827786,107.883107 15.564932,107.883107 L70.0421941,107.883107 C77.189092,107.883107 83,102.059228 83,94.9123301 C83,88.6085326 78.4991405,83.355368 72.5325832,82.1879981 L72.5325832,82.1879981 Z M70.0421941,102.694796 L15.564932,102.694796 C9.8448195,102.694796 5.18831067,98.0382872 5.18831067,92.3181747 C5.18831067,86.5980622 9.8448195,81.9415534 15.564932,81.9415534 L18.1590874,81.9415534 C19.4042819,81.9415534 20.4678856,81.0465698 20.7013596,79.8273168 C22.7377715,69.0226598 32.5696203,61.1883107 44.1006407,61.1883107 C56.9676512,61.1883107 67.4480388,71.6557275 67.4480388,84.5357087 C67.4480388,85.9624941 68.6024379,87.129864 70.0421941,87.129864 C74.3225504,87.129864 77.8246601,90.619003 77.8246601,94.9123301 C77.8246601,99.2056571 74.3225504,102.694796 70.0421941,102.694796 L70.0421941,102.694796 Z" id="149" fill="#E1E1E1" transform="translate(41.500000, 93.615252) scale(-1, 1) translate(-41.500000, -93.615252) "></path>
                <path d="M169.132931,24.2708621 C169.549828,23.8539655 169.549828,23.1805172 169.132931,22.7636207 C168.716034,22.3413793 168.037241,22.3413793 167.620345,22.7636207 L164.563103,25.8208621 L167.77,27.9587931 L166.551379,29.1774138 C166.134483,29.5943103 166.134483,30.2677586 166.551379,30.6846552 C166.759828,30.8931034 167.032414,31 167.310345,31 C167.582931,31 167.855517,30.8931034 168.063966,30.6846552 L171.121207,27.6274138 L167.91431,25.4894828 L169.132931,24.2708621 L169.132931,24.2708621 Z M160.581207,24.2708621 C160.998103,23.8539655 160.998103,23.1805172 160.581207,22.7636207 C160.16431,22.3413793 159.485517,22.3413793 159.068621,22.7636207 L156.011379,25.8208621 L159.218276,27.9587931 L157.999655,29.1774138 C157.582759,29.5943103 157.582759,30.2677586 157.999655,30.6846552 C158.208103,30.8931034 158.48069,31 158.758621,31 C159.031207,31 159.303793,30.8931034 159.512241,30.6846552 L162.574828,27.6274138 L159.367931,25.4894828 L160.581207,24.2708621 L160.581207,24.2708621 Z M176.888276,10.7912069 C176.396552,4.75689655 171.32431,0 165.172414,0 C159.704655,0 154.990517,3.54896552 153.627586,8.55172414 L153.413793,8.55172414 C149.875517,8.55172414 147,11.4272414 147,14.9655172 C147,18.5037931 149.875517,21.3793103 153.413793,21.3793103 L175.862069,21.3793103 C178.807069,21.3793103 181.201552,18.9794828 181.201552,16.0344828 C181.201552,13.4368966 179.346897,11.2722414 176.888276,10.7912069 L176.888276,10.7912069 Z M175.862069,19.2413793 L153.413793,19.2413793 C151.056724,19.2413793 149.137931,17.3225862 149.137931,14.9655172 C149.137931,12.6084483 151.056724,10.6896552 153.413793,10.6896552 L154.482759,10.6896552 C154.995862,10.6896552 155.434138,10.3208621 155.530345,9.81844828 C156.369483,5.3662069 160.420862,2.13793103 165.172414,2.13793103 C170.474483,2.13793103 174.793103,6.4512069 174.793103,11.7586207 C174.793103,12.3465517 175.268793,12.8275862 175.862069,12.8275862 C177.625862,12.8275862 179.068966,14.2653448 179.068966,16.0344828 C179.068966,17.8036207 177.625862,19.2413793 175.862069,19.2413793 L175.862069,19.2413793 Z" id="149-copy" fill="#E1E1E1" opacity="0.368319746" transform="translate(164.100776, 15.500000) scale(-1, 1) translate(-164.100776, -15.500000) "></path>
            </g>
        </g>
    </g>
</svg>